<mxfile host="65bd71144e" pages="6">
    <diagram id="bzJgOtCz7rdy3dgjKnZD" name="comu">
        <mxGraphModel dx="470" dy="133" grid="1" gridSize="10" guides="1" tooltips="1" connect="1" arrows="1" fold="1" page="1" pageScale="1" pageWidth="827" pageHeight="1169" math="0" shadow="0">
            <root>
                <mxCell id="LMWvbOjNEntYu6bPClK_-0"/>
                <mxCell id="LMWvbOjNEntYu6bPClK_-1" parent="LMWvbOjNEntYu6bPClK_-0"/>
                <mxCell id="jYiDK362KQe8xc3Rwrvr-0" value="" style="edgeStyle=orthogonalEdgeStyle;rounded=0;orthogonalLoop=1;jettySize=auto;html=1;endArrow=none;endFill=0;strokeColor=#330000;entryX=-0.006;entryY=0.505;entryDx=0;entryDy=0;entryPerimeter=0;" parent="LMWvbOjNEntYu6bPClK_-1" source="jYiDK362KQe8xc3Rwrvr-1" target="jYiDK362KQe8xc3Rwrvr-2" edge="1">
                    <mxGeometry relative="1" as="geometry">
                        <mxPoint x="700" y="329.5" as="targetPoint"/>
                    </mxGeometry>
                </mxCell>
                <mxCell id="jYiDK362KQe8xc3Rwrvr-1" value=":Search&lt;br&gt;Patientrights&lt;br style=&quot;font-size: 13px&quot;&gt;UI" style="shape=umlBoundary;whiteSpace=wrap;html=1;fontSize=13;" parent="LMWvbOjNEntYu6bPClK_-1" vertex="1">
                    <mxGeometry x="530" y="289.5" width="100" height="80" as="geometry"/>
                </mxCell>
                <mxCell id="jYiDK362KQe8xc3Rwrvr-2" value="&lt;font&gt;&lt;font style=&quot;font-size: 12px&quot;&gt;:Patientrights&lt;br&gt;Controller&lt;/font&gt;&lt;br style=&quot;font-size: 13px&quot;&gt;&lt;/font&gt;" style="ellipse;shape=umlControl;whiteSpace=wrap;html=1;fontSize=13;" parent="LMWvbOjNEntYu6bPClK_-1" vertex="1">
                    <mxGeometry x="875" y="282" width="85" height="95" as="geometry"/>
                </mxCell>
                <mxCell id="jYiDK362KQe8xc3Rwrvr-3" value="" style="edgeStyle=orthogonalEdgeStyle;rounded=0;orthogonalLoop=1;jettySize=auto;html=1;endArrow=none;endFill=0;strokeColor=#330000;entryX=0.002;entryY=0.502;entryDx=0;entryDy=0;entryPerimeter=0;" parent="LMWvbOjNEntYu6bPClK_-1" source="jYiDK362KQe8xc3Rwrvr-4" target="jYiDK362KQe8xc3Rwrvr-1" edge="1">
                    <mxGeometry relative="1" as="geometry">
                        <mxPoint x="295" y="329.5" as="targetPoint"/>
                    </mxGeometry>
                </mxCell>
                <mxCell id="jYiDK362KQe8xc3Rwrvr-4" value="&lt;font style=&quot;font-size: 13px&quot;&gt;:พนักงานเวชระเบียน&lt;/font&gt;" style="shape=umlActor;verticalLabelPosition=bottom;verticalAlign=top;html=1;" parent="LMWvbOjNEntYu6bPClK_-1" vertex="1">
                    <mxGeometry x="230" y="299.5" width="30" height="60" as="geometry"/>
                </mxCell>
                <mxCell id="jYiDK362KQe8xc3Rwrvr-5" value="&lt;font style=&quot;font-size: 12px&quot;&gt;:Medicalre&lt;br&gt;cordstaff&lt;/font&gt;" style="ellipse;shape=umlEntity;whiteSpace=wrap;html=1;fontSize=13;" parent="LMWvbOjNEntYu6bPClK_-1" vertex="1">
                    <mxGeometry x="943.75" y="539.75" width="80" height="80" as="geometry"/>
                </mxCell>
                <mxCell id="jYiDK362KQe8xc3Rwrvr-6" value="&lt;font style=&quot;font-size: 12px&quot;&gt;:Patientrecord&lt;/font&gt;" style="ellipse;shape=umlEntity;whiteSpace=wrap;html=1;fontSize=13;" parent="LMWvbOjNEntYu6bPClK_-1" vertex="1">
                    <mxGeometry x="610" y="529.5" width="80" height="80" as="geometry"/>
                </mxCell>
                <mxCell id="jYiDK362KQe8xc3Rwrvr-7" value=":Patientrights" style="ellipse;shape=umlEntity;whiteSpace=wrap;html=1;fillColor=#fff2cc;strokeColor=#d6b656;fontSize=13;" parent="LMWvbOjNEntYu6bPClK_-1" vertex="1">
                    <mxGeometry x="1210" y="289.5" width="90" height="90" as="geometry"/>
                </mxCell>
                <mxCell id="jYiDK362KQe8xc3Rwrvr-8" value="" style="endArrow=none;html=1;strokeColor=#330000;entryX=0.078;entryY=0.804;entryDx=0;entryDy=0;entryPerimeter=0;exitX=0.683;exitY=0.021;exitDx=0;exitDy=0;exitPerimeter=0;" parent="LMWvbOjNEntYu6bPClK_-1" source="jYiDK362KQe8xc3Rwrvr-6" target="jYiDK362KQe8xc3Rwrvr-2" edge="1">
                    <mxGeometry width="50" height="50" relative="1" as="geometry">
                        <mxPoint x="800" y="469.5" as="sourcePoint"/>
                        <mxPoint x="850" y="419.5" as="targetPoint"/>
                    </mxGeometry>
                </mxCell>
                <mxCell id="jYiDK362KQe8xc3Rwrvr-9" value="" style="endArrow=none;html=1;strokeColor=#330000;exitX=0.5;exitY=0;exitDx=0;exitDy=0;" parent="LMWvbOjNEntYu6bPClK_-1" source="jYiDK362KQe8xc3Rwrvr-5" target="jYiDK362KQe8xc3Rwrvr-2" edge="1">
                    <mxGeometry width="50" height="50" relative="1" as="geometry">
                        <mxPoint x="1000" y="469.5" as="sourcePoint"/>
                        <mxPoint x="1050" y="419.5" as="targetPoint"/>
                    </mxGeometry>
                </mxCell>
                <mxCell id="jYiDK362KQe8xc3Rwrvr-10" value="" style="endArrow=none;html=1;strokeColor=#330000;entryX=0;entryY=0.5;entryDx=0;entryDy=0;exitX=0.998;exitY=0.571;exitDx=0;exitDy=0;exitPerimeter=0;" parent="LMWvbOjNEntYu6bPClK_-1" source="jYiDK362KQe8xc3Rwrvr-2" target="jYiDK362KQe8xc3Rwrvr-7" edge="1">
                    <mxGeometry width="50" height="50" relative="1" as="geometry">
                        <mxPoint x="950" y="329.5" as="sourcePoint"/>
                        <mxPoint x="1050" y="419.5" as="targetPoint"/>
                    </mxGeometry>
                </mxCell>
                <mxCell id="jYiDK362KQe8xc3Rwrvr-11" value="&lt;font style=&quot;font-size: 12px&quot;&gt;1: เปิด()&lt;/font&gt;" style="text;html=1;strokeColor=none;fillColor=none;align=center;verticalAlign=middle;whiteSpace=wrap;rounded=0;fontSize=13;" parent="LMWvbOjNEntYu6bPClK_-1" vertex="1">
                    <mxGeometry x="370" y="349.5" width="50" height="20" as="geometry"/>
                </mxCell>
                <mxCell id="jYiDK362KQe8xc3Rwrvr-12" value="" style="endArrow=block;html=1;strokeColor=#330000;endFill=1;" parent="LMWvbOjNEntYu6bPClK_-1" edge="1">
                    <mxGeometry width="50" height="50" relative="1" as="geometry">
                        <mxPoint x="340" y="340" as="sourcePoint"/>
                        <mxPoint x="470" y="339.5" as="targetPoint"/>
                    </mxGeometry>
                </mxCell>
                <mxCell id="jYiDK362KQe8xc3Rwrvr-13" value="" style="endArrow=block;html=1;strokeColor=#330000;endFill=1;" parent="LMWvbOjNEntYu6bPClK_-1" edge="1">
                    <mxGeometry width="50" height="50" relative="1" as="geometry">
                        <mxPoint x="770" y="419.5" as="sourcePoint"/>
                        <mxPoint x="680" y="494.5" as="targetPoint"/>
                    </mxGeometry>
                </mxCell>
                <mxCell id="jYiDK362KQe8xc3Rwrvr-14" value="" style="endArrow=block;html=1;strokeColor=#330000;endFill=1;" parent="LMWvbOjNEntYu6bPClK_-1" edge="1">
                    <mxGeometry width="50" height="50" relative="1" as="geometry">
                        <mxPoint x="697.5" y="281" as="sourcePoint"/>
                        <mxPoint x="812" y="281.5" as="targetPoint"/>
                    </mxGeometry>
                </mxCell>
                <mxCell id="jYiDK362KQe8xc3Rwrvr-15" value="5: ดึงข้อมูลทั้งหมด()" style="text;html=1;strokeColor=none;fillColor=none;align=center;verticalAlign=middle;whiteSpace=wrap;rounded=0;fontSize=13;" parent="LMWvbOjNEntYu6bPClK_-1" vertex="1">
                    <mxGeometry x="697.5" y="251" width="120" height="20" as="geometry"/>
                </mxCell>
                <mxCell id="jYiDK362KQe8xc3Rwrvr-16" value="4: ดึงข้อมูลผู้ป่วยทั้งหมด()" style="text;html=1;strokeColor=none;fillColor=none;align=center;verticalAlign=middle;whiteSpace=wrap;rounded=0;fontSize=13;" parent="LMWvbOjNEntYu6bPClK_-1" vertex="1">
                    <mxGeometry x="570" y="434.5" width="160" height="20" as="geometry"/>
                </mxCell>
                <mxCell id="jYiDK362KQe8xc3Rwrvr-17" value="7:&amp;nbsp;&lt;span style=&quot;font-size: 12px&quot;&gt;ค้นหา&lt;/span&gt;&lt;span style=&quot;font-size: 12px&quot;&gt;สิทธิ์ผู้ป่วย&lt;/span&gt;(name)" style="text;html=1;strokeColor=none;fillColor=none;align=center;verticalAlign=middle;whiteSpace=wrap;rounded=0;fontSize=13;" parent="LMWvbOjNEntYu6bPClK_-1" vertex="1">
                    <mxGeometry x="309" y="289.5" width="172" height="20" as="geometry"/>
                </mxCell>
                <mxCell id="jYiDK362KQe8xc3Rwrvr-18" value="" style="endArrow=block;html=1;strokeColor=#330000;endFill=1;" parent="LMWvbOjNEntYu6bPClK_-1" edge="1">
                    <mxGeometry width="50" height="50" relative="1" as="geometry">
                        <mxPoint x="339.75" y="322.5" as="sourcePoint"/>
                        <mxPoint x="470" y="322.5" as="targetPoint"/>
                        <Array as="points">
                            <mxPoint x="420.25" y="322"/>
                        </Array>
                    </mxGeometry>
                </mxCell>
                <mxCell id="jYiDK362KQe8xc3Rwrvr-19" value="" style="endArrow=block;html=1;strokeColor=#330000;endFill=1;" parent="LMWvbOjNEntYu6bPClK_-1" edge="1">
                    <mxGeometry width="50" height="50" relative="1" as="geometry">
                        <mxPoint x="683" y="319.5" as="sourcePoint"/>
                        <mxPoint x="823" y="319.5" as="targetPoint"/>
                    </mxGeometry>
                </mxCell>
                <mxCell id="jYiDK362KQe8xc3Rwrvr-20" value="&lt;font style=&quot;font-size: 12px&quot;&gt;2 : โหลดข้อมูลเลขที่พนักงานเวชระเบียนที่เข้าระบบ(mid)&lt;/font&gt;" style="text;html=1;strokeColor=none;fillColor=none;align=center;verticalAlign=middle;whiteSpace=wrap;rounded=0;" parent="LMWvbOjNEntYu6bPClK_-1" vertex="1">
                    <mxGeometry x="660" y="289.5" width="195" height="20" as="geometry"/>
                </mxCell>
                <mxCell id="jYiDK362KQe8xc3Rwrvr-21" value="&lt;font style=&quot;font-size: 12px&quot;&gt;3: ค้นหาพนักงานเวชระเบียน(mid)&lt;/font&gt;" style="text;html=1;strokeColor=none;fillColor=none;align=center;verticalAlign=middle;whiteSpace=wrap;rounded=0;fontSize=13;" parent="LMWvbOjNEntYu6bPClK_-1" vertex="1">
                    <mxGeometry x="960" y="439.75" width="228" height="20" as="geometry"/>
                </mxCell>
                <mxCell id="jYiDK362KQe8xc3Rwrvr-22" value="" style="endArrow=block;html=1;strokeColor=#330000;endFill=1;" parent="LMWvbOjNEntYu6bPClK_-1" edge="1">
                    <mxGeometry width="50" height="50" relative="1" as="geometry">
                        <mxPoint x="970" y="442.75" as="sourcePoint"/>
                        <mxPoint x="1000" y="509.75" as="targetPoint"/>
                    </mxGeometry>
                </mxCell>
                <mxCell id="jYiDK362KQe8xc3Rwrvr-23" value="" style="endArrow=block;html=1;strokeColor=#330000;endFill=1;" parent="LMWvbOjNEntYu6bPClK_-1" edge="1">
                    <mxGeometry width="50" height="50" relative="1" as="geometry">
                        <mxPoint x="1033.75" y="319.5" as="sourcePoint"/>
                        <mxPoint x="1148.25" y="320" as="targetPoint"/>
                    </mxGeometry>
                </mxCell>
                <mxCell id="jYiDK362KQe8xc3Rwrvr-24" value="6: ดึงข้อมูลสิทธิ์ทั้งหมด()" style="text;html=1;strokeColor=none;fillColor=none;align=center;verticalAlign=middle;whiteSpace=wrap;rounded=0;fontSize=13;" parent="LMWvbOjNEntYu6bPClK_-1" vertex="1">
                    <mxGeometry x="1023.75" y="289.5" width="137.5" height="20" as="geometry"/>
                </mxCell>
                <mxCell id="jYiDK362KQe8xc3Rwrvr-25" value="" style="endArrow=block;html=1;strokeColor=#330000;endFill=1;" parent="LMWvbOjNEntYu6bPClK_-1" edge="1">
                    <mxGeometry width="50" height="50" relative="1" as="geometry">
                        <mxPoint x="697.5" y="250" as="sourcePoint"/>
                        <mxPoint x="812" y="250.5" as="targetPoint"/>
                    </mxGeometry>
                </mxCell>
                <mxCell id="jYiDK362KQe8xc3Rwrvr-26" value="8:&amp;nbsp;&lt;span style=&quot;font-size: 12px&quot;&gt;ค้นหา&lt;/span&gt;&lt;span style=&quot;font-size: 12px&quot;&gt;สิทธิ์ผู้ป่วย&lt;/span&gt;(name)" style="text;html=1;strokeColor=none;fillColor=none;align=center;verticalAlign=middle;whiteSpace=wrap;rounded=0;fontSize=13;" parent="LMWvbOjNEntYu6bPClK_-1" vertex="1">
                    <mxGeometry x="676.25" y="220" width="162.5" height="20" as="geometry"/>
                </mxCell>
                <mxCell id="jYiDK362KQe8xc3Rwrvr-27" value="9:&amp;nbsp;&lt;span style=&quot;font-size: 12px&quot;&gt;ค้นหา&lt;/span&gt;&lt;span style=&quot;font-size: 12px&quot;&gt;สิทธิ์ผู้ป่วย&lt;/span&gt;(name)" style="text;html=1;strokeColor=none;fillColor=none;align=center;verticalAlign=middle;whiteSpace=wrap;rounded=0;fontSize=13;" parent="LMWvbOjNEntYu6bPClK_-1" vertex="1">
                    <mxGeometry x="1017.5" y="251" width="162.5" height="20" as="geometry"/>
                </mxCell>
                <mxCell id="jYiDK362KQe8xc3Rwrvr-28" value="" style="endArrow=block;html=1;strokeColor=#330000;endFill=1;" parent="LMWvbOjNEntYu6bPClK_-1" edge="1">
                    <mxGeometry width="50" height="50" relative="1" as="geometry">
                        <mxPoint x="1035.25" y="279.5" as="sourcePoint"/>
                        <mxPoint x="1149.75" y="280" as="targetPoint"/>
                    </mxGeometry>
                </mxCell>
            </root>
        </mxGraphModel>
    </diagram>
    <diagram id="uq04VEFEQE6Xi56XoTHK" name="Communication Diagram">
        &#xa;
        <mxGraphModel dx="1297" dy="133" grid="1" gridSize="10" guides="1" tooltips="1" connect="1" arrows="1" fold="1" page="1" pageScale="1" pageWidth="827" pageHeight="1169" math="0" shadow="0">
            &#xa;
            <root>
                &#xa;
                <mxCell id="0"/>
                &#xa;
                <mxCell id="1" parent="0"/>
                &#xa;
                <mxCell id="2" value="" style="edgeStyle=orthogonalEdgeStyle;rounded=0;orthogonalLoop=1;jettySize=auto;html=1;endArrow=none;endFill=0;strokeColor=#330000;entryX=-0.006;entryY=0.505;entryDx=0;entryDy=0;entryPerimeter=0;" parent="1" source="3" target="4" edge="1">
                    &#xa;
                    <mxGeometry relative="1" as="geometry">
                        &#xa;
                        <mxPoint x="250" y="510" as="targetPoint"/>
                        &#xa;
                    </mxGeometry>
                    &#xa;
                </mxCell>
                &#xa;
                <mxCell id="3" value=":Search&lt;br&gt;Patientrights&lt;br style=&quot;font-size: 13px&quot;&gt;UI" style="shape=umlBoundary;whiteSpace=wrap;html=1;fontSize=13;" parent="1" vertex="1">
                    &#xa;
                    <mxGeometry x="80" y="470" width="100" height="80" as="geometry"/>
                    &#xa;
                </mxCell>
                &#xa;
                <mxCell id="4" value="&lt;font&gt;&lt;font style=&quot;font-size: 12px&quot;&gt;:Patientrights&lt;br&gt;Controller&lt;/font&gt;&lt;br style=&quot;font-size: 13px&quot;&gt;&lt;/font&gt;" style="ellipse;shape=umlControl;whiteSpace=wrap;html=1;fontSize=13;" parent="1" vertex="1">
                    &#xa;
                    <mxGeometry x="425" y="462.5" width="85" height="95" as="geometry"/>
                    &#xa;
                </mxCell>
                &#xa;
                <mxCell id="5" value="" style="edgeStyle=orthogonalEdgeStyle;rounded=0;orthogonalLoop=1;jettySize=auto;html=1;endArrow=none;endFill=0;strokeColor=#330000;entryX=0.002;entryY=0.502;entryDx=0;entryDy=0;entryPerimeter=0;" parent="1" source="6" target="3" edge="1">
                    &#xa;
                    <mxGeometry relative="1" as="geometry">
                        &#xa;
                        <mxPoint x="-155" y="510" as="targetPoint"/>
                        &#xa;
                    </mxGeometry>
                    &#xa;
                </mxCell>
                &#xa;
                <mxCell id="6" value="&lt;font style=&quot;font-size: 13px&quot;&gt;:พนักงานเวชระเบียน&lt;/font&gt;" style="shape=umlActor;verticalLabelPosition=bottom;verticalAlign=top;html=1;" parent="1" vertex="1">
                    &#xa;
                    <mxGeometry x="-220" y="480" width="30" height="60" as="geometry"/>
                    &#xa;
                </mxCell>
                &#xa;
                <mxCell id="8" value="&lt;font style=&quot;font-size: 12px&quot;&gt;:&lt;/font&gt;&lt;span style=&quot;font-size: 12px&quot;&gt;Ability&lt;br&gt;patientrights&lt;/span&gt;" style="ellipse;shape=umlEntity;whiteSpace=wrap;html=1;fontSize=14;" parent="1" vertex="1">
                    &#xa;
                    <mxGeometry x="355.5" y="790" width="80" height="80" as="geometry"/>
                    &#xa;
                </mxCell>
                &#xa;
                <mxCell id="9" value="&lt;font style=&quot;font-size: 12px&quot;&gt;:Insurance&lt;/font&gt;" style="ellipse;shape=umlEntity;whiteSpace=wrap;html=1;fontSize=13;" parent="1" vertex="1">
                    &#xa;
                    <mxGeometry x="602.5" y="770" width="80" height="80" as="geometry"/>
                    &#xa;
                </mxCell>
                &#xa;
                <mxCell id="10" value="&lt;font style=&quot;font-size: 12px&quot;&gt;:Medicalre&lt;br&gt;cordstaff&lt;/font&gt;" style="ellipse;shape=umlEntity;whiteSpace=wrap;html=1;fontSize=13;" parent="1" vertex="1">
                    &#xa;
                    <mxGeometry x="760" y="640" width="80" height="80" as="geometry"/>
                    &#xa;
                </mxCell>
                &#xa;
                <mxCell id="11" value="&lt;font style=&quot;font-size: 12px&quot;&gt;:Patientrecord&lt;/font&gt;" style="ellipse;shape=umlEntity;whiteSpace=wrap;html=1;fontSize=13;" parent="1" vertex="1">
                    &#xa;
                    <mxGeometry x="160" y="710" width="80" height="80" as="geometry"/>
                    &#xa;
                </mxCell>
                &#xa;
                <mxCell id="12" value=":Patientrights" style="ellipse;shape=umlEntity;whiteSpace=wrap;html=1;fillColor=#fff2cc;strokeColor=#d6b656;fontSize=13;" parent="1" vertex="1">
                    &#xa;
                    <mxGeometry x="760" y="470" width="90" height="90" as="geometry"/>
                    &#xa;
                </mxCell>
                &#xa;
                <mxCell id="14" value="" style="endArrow=none;html=1;strokeColor=#330000;entryX=0.078;entryY=0.804;entryDx=0;entryDy=0;entryPerimeter=0;exitX=0.683;exitY=0.021;exitDx=0;exitDy=0;exitPerimeter=0;" parent="1" source="11" target="4" edge="1">
                    &#xa;
                    <mxGeometry width="50" height="50" relative="1" as="geometry">
                        &#xa;
                        <mxPoint x="350" y="650" as="sourcePoint"/>
                        &#xa;
                        <mxPoint x="400" y="600" as="targetPoint"/>
                        &#xa;
                    </mxGeometry>
                    &#xa;
                </mxCell>
                &#xa;
                <mxCell id="15" value="" style="endArrow=none;html=1;strokeColor=#330000;exitX=0.5;exitY=0;exitDx=0;exitDy=0;" parent="1" source="8" target="4" edge="1">
                    &#xa;
                    <mxGeometry width="50" height="50" relative="1" as="geometry">
                        &#xa;
                        <mxPoint x="350" y="710" as="sourcePoint"/>
                        &#xa;
                        <mxPoint x="400" y="660" as="targetPoint"/>
                        &#xa;
                    </mxGeometry>
                    &#xa;
                </mxCell>
                &#xa;
                <mxCell id="16" value="" style="endArrow=none;html=1;strokeColor=#330000;exitX=0.373;exitY=0.041;exitDx=0;exitDy=0;entryX=0.769;entryY=0.942;entryDx=0;entryDy=0;entryPerimeter=0;exitPerimeter=0;" parent="1" source="9" target="4" edge="1">
                    &#xa;
                    <mxGeometry width="50" height="50" relative="1" as="geometry">
                        &#xa;
                        <mxPoint x="550" y="710" as="sourcePoint"/>
                        &#xa;
                        <mxPoint x="480" y="538" as="targetPoint"/>
                        &#xa;
                    </mxGeometry>
                    &#xa;
                </mxCell>
                &#xa;
                <mxCell id="17" value="" style="endArrow=none;html=1;strokeColor=#330000;entryX=0.965;entryY=0.725;entryDx=0;entryDy=0;entryPerimeter=0;exitX=0;exitY=0;exitDx=0;exitDy=0;" parent="1" source="10" target="4" edge="1">
                    &#xa;
                    <mxGeometry width="50" height="50" relative="1" as="geometry">
                        &#xa;
                        <mxPoint x="550" y="650" as="sourcePoint"/>
                        &#xa;
                        <mxPoint x="600" y="600" as="targetPoint"/>
                        &#xa;
                    </mxGeometry>
                    &#xa;
                </mxCell>
                &#xa;
                <mxCell id="18" value="" style="endArrow=none;html=1;strokeColor=#330000;entryX=0;entryY=0.5;entryDx=0;entryDy=0;exitX=0.998;exitY=0.571;exitDx=0;exitDy=0;exitPerimeter=0;" parent="1" source="4" target="12" edge="1">
                    &#xa;
                    <mxGeometry width="50" height="50" relative="1" as="geometry">
                        &#xa;
                        <mxPoint x="500" y="510" as="sourcePoint"/>
                        &#xa;
                        <mxPoint x="600" y="600" as="targetPoint"/>
                        &#xa;
                    </mxGeometry>
                    &#xa;
                </mxCell>
                &#xa;
                <mxCell id="19" value="&lt;font style=&quot;font-size: 12px&quot;&gt;1: เปิด()&lt;/font&gt;" style="text;html=1;strokeColor=none;fillColor=none;align=center;verticalAlign=middle;whiteSpace=wrap;rounded=0;fontSize=13;" parent="1" vertex="1">
                    &#xa;
                    <mxGeometry x="-80" y="530" width="50" height="20" as="geometry"/>
                    &#xa;
                </mxCell>
                &#xa;
                <mxCell id="20" value="" style="endArrow=block;html=1;strokeColor=#330000;endFill=1;" parent="1" edge="1">
                    &#xa;
                    <mxGeometry width="50" height="50" relative="1" as="geometry">
                        &#xa;
                        <mxPoint x="-120" y="520" as="sourcePoint"/>
                        &#xa;
                        <mxPoint x="20" y="520" as="targetPoint"/>
                        &#xa;
                    </mxGeometry>
                    &#xa;
                </mxCell>
                &#xa;
                <mxCell id="h2szp2nauUafBG718fgF-27" value="" style="endArrow=block;html=1;strokeColor=#330000;endFill=1;" parent="1" edge="1">
                    &#xa;
                    <mxGeometry width="50" height="50" relative="1" as="geometry">
                        &#xa;
                        <mxPoint x="320" y="600" as="sourcePoint"/>
                        &#xa;
                        <mxPoint x="230" y="675" as="targetPoint"/>
                        &#xa;
                    </mxGeometry>
                    &#xa;
                </mxCell>
                &#xa;
                <mxCell id="h2szp2nauUafBG718fgF-29" value="" style="endArrow=block;html=1;strokeColor=#330000;endFill=1;" parent="1" edge="1">
                    &#xa;
                    <mxGeometry width="50" height="50" relative="1" as="geometry">
                        &#xa;
                        <mxPoint x="247.5" y="461.5" as="sourcePoint"/>
                        &#xa;
                        <mxPoint x="362" y="462" as="targetPoint"/>
                        &#xa;
                    </mxGeometry>
                    &#xa;
                </mxCell>
                &#xa;
                <mxCell id="h2szp2nauUafBG718fgF-31" value="" style="endArrow=block;html=1;strokeColor=#330000;endFill=1;" parent="1" edge="1">
                    &#xa;
                    <mxGeometry width="50" height="50" relative="1" as="geometry">
                        &#xa;
                        <mxPoint x="430" y="640" as="sourcePoint"/>
                        &#xa;
                        <mxPoint x="400" y="740" as="targetPoint"/>
                        &#xa;
                    </mxGeometry>
                    &#xa;
                </mxCell>
                &#xa;
                <mxCell id="h2szp2nauUafBG718fgF-36" value="" style="endArrow=block;html=1;strokeColor=#330000;endFill=1;" parent="1" edge="1">
                    &#xa;
                    <mxGeometry width="50" height="50" relative="1" as="geometry">
                        &#xa;
                        <mxPoint x="540" y="640" as="sourcePoint"/>
                        &#xa;
                        <mxPoint x="590" y="730" as="targetPoint"/>
                        &#xa;
                    </mxGeometry>
                    &#xa;
                </mxCell>
                &#xa;
                <mxCell id="h2szp2nauUafBG718fgF-37" value="6: ดึงข้อมูลทั้งหมด()" style="text;html=1;strokeColor=none;fillColor=none;align=center;verticalAlign=middle;whiteSpace=wrap;rounded=0;fontSize=13;" parent="1" vertex="1">
                    &#xa;
                    <mxGeometry x="610" y="540" width="120" height="20" as="geometry"/>
                    &#xa;
                </mxCell>
                &#xa;
                <mxCell id="h2szp2nauUafBG718fgF-38" value="" style="endArrow=block;html=1;strokeColor=#330000;endFill=1;" parent="1" edge="1">
                    &#xa;
                    <mxGeometry width="50" height="50" relative="1" as="geometry">
                        &#xa;
                        <mxPoint x="597.5" y="557.5" as="sourcePoint"/>
                        &#xa;
                        <mxPoint x="687.5" y="602.5" as="targetPoint"/>
                        &#xa;
                    </mxGeometry>
                    &#xa;
                </mxCell>
                &#xa;
                <mxCell id="z9MVR2eJeC6F_kS9CsIq-20" value="4: ดึงข้อมูลทั้งหมด()" style="text;html=1;strokeColor=none;fillColor=none;align=center;verticalAlign=middle;whiteSpace=wrap;rounded=0;fontSize=13;" parent="1" vertex="1">
                    &#xa;
                    <mxGeometry x="247.5" y="431.5" width="120" height="20" as="geometry"/>
                    &#xa;
                </mxCell>
                &#xa;
                <mxCell id="z9MVR2eJeC6F_kS9CsIq-21" value="6: ดึงข้อมูลผู้ป่วยทั้งหมด()" style="text;html=1;strokeColor=none;fillColor=none;align=center;verticalAlign=middle;whiteSpace=wrap;rounded=0;fontSize=13;" parent="1" vertex="1">
                    &#xa;
                    <mxGeometry x="120" y="615" width="160" height="20" as="geometry"/>
                    &#xa;
                </mxCell>
                &#xa;
                <mxCell id="z9MVR2eJeC6F_kS9CsIq-22" value="6: ดึงข้อมูลทั้งหมด()" style="text;html=1;strokeColor=none;fillColor=none;align=center;verticalAlign=middle;whiteSpace=wrap;rounded=0;fontSize=13;" parent="1" vertex="1">
                    &#xa;
                    <mxGeometry x="447.5" y="680" width="120" height="20" as="geometry"/>
                    &#xa;
                </mxCell>
                &#xa;
                <mxCell id="z9MVR2eJeC6F_kS9CsIq-23" value="6: ดึงข้อมูลทั้งหมด()" style="text;html=1;strokeColor=none;fillColor=none;align=center;verticalAlign=middle;whiteSpace=wrap;rounded=0;fontSize=13;" parent="1" vertex="1">
                    &#xa;
                    <mxGeometry x="294" y="665" width="120" height="20" as="geometry"/>
                    &#xa;
                </mxCell>
                &#xa;
                <mxCell id="z9MVR2eJeC6F_kS9CsIq-24" value="7:&amp;nbsp;&lt;span style=&quot;font-size: 12px&quot;&gt;ค้นหา&lt;/span&gt;&lt;span style=&quot;font-size: 12px&quot;&gt;สิทธิ์ผู้ป่วย&lt;/span&gt;(name)" style="text;html=1;strokeColor=none;fillColor=none;align=center;verticalAlign=middle;whiteSpace=wrap;rounded=0;fontSize=13;" parent="1" vertex="1">
                    &#xa;
                    <mxGeometry x="-141" y="470" width="172" height="20" as="geometry"/>
                    &#xa;
                </mxCell>
                &#xa;
                <mxCell id="z9MVR2eJeC6F_kS9CsIq-25" value="" style="endArrow=block;html=1;strokeColor=#330000;endFill=1;" parent="1" edge="1">
                    &#xa;
                    <mxGeometry width="50" height="50" relative="1" as="geometry">
                        &#xa;
                        <mxPoint x="-110.25" y="503" as="sourcePoint"/>
                        &#xa;
                        <mxPoint x="20" y="503" as="targetPoint"/>
                        &#xa;
                        <Array as="points">
                            &#xa;
                            <mxPoint x="-29.75" y="502.5"/>
                            &#xa;
                        </Array>
                        &#xa;
                    </mxGeometry>
                    &#xa;
                </mxCell>
                &#xa;
                <mxCell id="zBfoiULTujSo1-oZpwFO-20" value="" style="endArrow=block;html=1;strokeColor=#330000;endFill=1;" parent="1" edge="1">
                    &#xa;
                    <mxGeometry width="50" height="50" relative="1" as="geometry">
                        &#xa;
                        <mxPoint x="233" y="500" as="sourcePoint"/>
                        &#xa;
                        <mxPoint x="373" y="500" as="targetPoint"/>
                        &#xa;
                    </mxGeometry>
                    &#xa;
                </mxCell>
                &#xa;
                <mxCell id="zBfoiULTujSo1-oZpwFO-21" value="&lt;font style=&quot;font-size: 12px&quot;&gt;2 : โหลดข้อมูลเลขที่พนักงานเวชระเบียนที่เข้าระบบ(mid)&lt;/font&gt;" style="text;html=1;strokeColor=none;fillColor=none;align=center;verticalAlign=middle;whiteSpace=wrap;rounded=0;" parent="1" vertex="1">
                    &#xa;
                    <mxGeometry x="210" y="470" width="195" height="20" as="geometry"/>
                    &#xa;
                </mxCell>
                &#xa;
                <mxCell id="zBfoiULTujSo1-oZpwFO-22" value="&lt;font style=&quot;font-size: 12px&quot;&gt;3: ค้นหาพนักงานเวชระเบียน(mid)&lt;/font&gt;" style="text;html=1;strokeColor=none;fillColor=none;align=center;verticalAlign=middle;whiteSpace=wrap;rounded=0;fontSize=13;" parent="1" vertex="1">
                    &#xa;
                    <mxGeometry x="692" y="585" width="228" height="20" as="geometry"/>
                    &#xa;
                </mxCell>
                &#xa;
                <mxCell id="zBfoiULTujSo1-oZpwFO-23" value="" style="endArrow=block;html=1;strokeColor=#330000;endFill=1;" parent="1" edge="1">
                    &#xa;
                    <mxGeometry width="50" height="50" relative="1" as="geometry">
                        &#xa;
                        <mxPoint x="690" y="608" as="sourcePoint"/>
                        &#xa;
                        <mxPoint x="760" y="638" as="targetPoint"/>
                        &#xa;
                    </mxGeometry>
                    &#xa;
                </mxCell>
                &#xa;
                <mxCell id="9xPJgWfNeSfDZ_Khho-b-20" value="" style="endArrow=block;html=1;strokeColor=#330000;endFill=1;" parent="1" edge="1">
                    &#xa;
                    <mxGeometry width="50" height="50" relative="1" as="geometry">
                        &#xa;
                        <mxPoint x="583.75" y="500" as="sourcePoint"/>
                        &#xa;
                        <mxPoint x="698.25" y="500.5" as="targetPoint"/>
                        &#xa;
                    </mxGeometry>
                    &#xa;
                </mxCell>
                &#xa;
                <mxCell id="9xPJgWfNeSfDZ_Khho-b-21" value="5: ดึงข้อมูลสิทธิ์ทั้งหมด()" style="text;html=1;strokeColor=none;fillColor=none;align=center;verticalAlign=middle;whiteSpace=wrap;rounded=0;fontSize=13;" parent="1" vertex="1">
                    &#xa;
                    <mxGeometry x="573.75" y="470" width="137.5" height="20" as="geometry"/>
                    &#xa;
                </mxCell>
                &#xa;
                <mxCell id="1nXE--oQEknWn3eENVXs-20" value="" style="endArrow=block;html=1;strokeColor=#330000;endFill=1;" parent="1" edge="1">
                    &#xa;
                    <mxGeometry width="50" height="50" relative="1" as="geometry">
                        &#xa;
                        <mxPoint x="247.5" y="430.5" as="sourcePoint"/>
                        &#xa;
                        <mxPoint x="362" y="431" as="targetPoint"/>
                        &#xa;
                    </mxGeometry>
                    &#xa;
                </mxCell>
                &#xa;
                <mxCell id="1nXE--oQEknWn3eENVXs-21" value="8:&amp;nbsp;&lt;span style=&quot;font-size: 12px&quot;&gt;ค้นหา&lt;/span&gt;&lt;span style=&quot;font-size: 12px&quot;&gt;สิทธิ์ผู้ป่วย&lt;/span&gt;(name)" style="text;html=1;strokeColor=none;fillColor=none;align=center;verticalAlign=middle;whiteSpace=wrap;rounded=0;fontSize=13;" parent="1" vertex="1">
                    &#xa;
                    <mxGeometry x="226.25" y="400.5" width="162.5" height="20" as="geometry"/>
                    &#xa;
                </mxCell>
                &#xa;
                <mxCell id="1nXE--oQEknWn3eENVXs-22" value="9:&amp;nbsp;&lt;span style=&quot;font-size: 12px&quot;&gt;ค้นหา&lt;/span&gt;&lt;span style=&quot;font-size: 12px&quot;&gt;สิทธิ์ผู้ป่วย&lt;/span&gt;(name)" style="text;html=1;strokeColor=none;fillColor=none;align=center;verticalAlign=middle;whiteSpace=wrap;rounded=0;fontSize=13;" parent="1" vertex="1">
                    &#xa;
                    <mxGeometry x="567.5" y="431.5" width="162.5" height="20" as="geometry"/>
                    &#xa;
                </mxCell>
                &#xa;
                <mxCell id="1nXE--oQEknWn3eENVXs-23" value="" style="endArrow=block;html=1;strokeColor=#330000;endFill=1;" parent="1" edge="1">
                    &#xa;
                    <mxGeometry width="50" height="50" relative="1" as="geometry">
                        &#xa;
                        <mxPoint x="585.25" y="460" as="sourcePoint"/>
                        &#xa;
                        <mxPoint x="699.75" y="460.5" as="targetPoint"/>
                        &#xa;
                    </mxGeometry>
                    &#xa;
                </mxCell>
                &#xa;
                <mxCell id="1nXE--oQEknWn3eENVXs-24" value="" style="edgeStyle=orthogonalEdgeStyle;rounded=0;orthogonalLoop=1;jettySize=auto;html=1;endArrow=none;endFill=0;strokeColor=#330000;entryX=-0.006;entryY=0.505;entryDx=0;entryDy=0;entryPerimeter=0;" parent="1" source="1nXE--oQEknWn3eENVXs-25" target="1nXE--oQEknWn3eENVXs-26" edge="1">
                    &#xa;
                    <mxGeometry relative="1" as="geometry">
                        &#xa;
                        <mxPoint x="207.5" y="1179.5" as="targetPoint"/>
                        &#xa;
                    </mxGeometry>
                    &#xa;
                </mxCell>
                &#xa;
                <mxCell id="1nXE--oQEknWn3eENVXs-25" value=":Search&lt;br&gt;Patientrights&lt;br style=&quot;font-size: 13px&quot;&gt;UI" style="shape=umlBoundary;whiteSpace=wrap;html=1;fontSize=13;" parent="1" vertex="1">
                    &#xa;
                    <mxGeometry x="37.5" y="1139.5" width="100" height="80" as="geometry"/>
                    &#xa;
                </mxCell>
                &#xa;
                <mxCell id="1nXE--oQEknWn3eENVXs-26" value="&lt;font&gt;&lt;font style=&quot;font-size: 12px&quot;&gt;:Patientrights&lt;br&gt;Controller&lt;/font&gt;&lt;br style=&quot;font-size: 13px&quot;&gt;&lt;/font&gt;" style="ellipse;shape=umlControl;whiteSpace=wrap;html=1;fontSize=13;" parent="1" vertex="1">
                    &#xa;
                    <mxGeometry x="382.5" y="1132" width="85" height="95" as="geometry"/>
                    &#xa;
                </mxCell>
                &#xa;
                <mxCell id="1nXE--oQEknWn3eENVXs-27" value="" style="edgeStyle=orthogonalEdgeStyle;rounded=0;orthogonalLoop=1;jettySize=auto;html=1;endArrow=none;endFill=0;strokeColor=#330000;entryX=0.002;entryY=0.502;entryDx=0;entryDy=0;entryPerimeter=0;" parent="1" source="1nXE--oQEknWn3eENVXs-28" target="1nXE--oQEknWn3eENVXs-25" edge="1">
                    &#xa;
                    <mxGeometry relative="1" as="geometry">
                        &#xa;
                        <mxPoint x="-197.5" y="1179.5" as="targetPoint"/>
                        &#xa;
                    </mxGeometry>
                    &#xa;
                </mxCell>
                &#xa;
                <mxCell id="1nXE--oQEknWn3eENVXs-28" value="&lt;font style=&quot;font-size: 13px&quot;&gt;:พนักงานเวชระเบียน&lt;/font&gt;" style="shape=umlActor;verticalLabelPosition=bottom;verticalAlign=top;html=1;" parent="1" vertex="1">
                    &#xa;
                    <mxGeometry x="-262.5" y="1149.5" width="30" height="60" as="geometry"/>
                    &#xa;
                </mxCell>
                &#xa;
                <mxCell id="1nXE--oQEknWn3eENVXs-29" value="&lt;font style=&quot;font-size: 12px&quot;&gt;:&lt;/font&gt;&lt;span style=&quot;font-size: 12px&quot;&gt;Ability&lt;br&gt;patientrights&lt;/span&gt;" style="ellipse;shape=umlEntity;whiteSpace=wrap;html=1;fontSize=14;" parent="1" vertex="1">
                    &#xa;
                    <mxGeometry x="313" y="1459.5" width="80" height="80" as="geometry"/>
                    &#xa;
                </mxCell>
                &#xa;
                <mxCell id="1nXE--oQEknWn3eENVXs-30" value="&lt;font style=&quot;font-size: 12px&quot;&gt;:Insurance&lt;/font&gt;" style="ellipse;shape=umlEntity;whiteSpace=wrap;html=1;fontSize=13;" parent="1" vertex="1">
                    &#xa;
                    <mxGeometry x="560" y="1439.5" width="80" height="80" as="geometry"/>
                    &#xa;
                </mxCell>
                &#xa;
                <mxCell id="1nXE--oQEknWn3eENVXs-31" value="&lt;font style=&quot;font-size: 12px&quot;&gt;:Medicalre&lt;br&gt;cordstaff&lt;/font&gt;" style="ellipse;shape=umlEntity;whiteSpace=wrap;html=1;fontSize=13;" parent="1" vertex="1">
                    &#xa;
                    <mxGeometry x="780" y="1379.5" width="80" height="80" as="geometry"/>
                    &#xa;
                </mxCell>
                &#xa;
                <mxCell id="1nXE--oQEknWn3eENVXs-32" value="&lt;font style=&quot;font-size: 12px&quot;&gt;:Patientrecord&lt;/font&gt;" style="ellipse;shape=umlEntity;whiteSpace=wrap;html=1;fontSize=13;" parent="1" vertex="1">
                    &#xa;
                    <mxGeometry x="117.5" y="1379.5" width="80" height="80" as="geometry"/>
                    &#xa;
                </mxCell>
                &#xa;
                <mxCell id="1nXE--oQEknWn3eENVXs-33" value=":Patientrights" style="ellipse;shape=umlEntity;whiteSpace=wrap;html=1;fillColor=#fff2cc;strokeColor=#d6b656;fontSize=13;" parent="1" vertex="1">
                    &#xa;
                    <mxGeometry x="717.5" y="1139.5" width="90" height="90" as="geometry"/>
                    &#xa;
                </mxCell>
                &#xa;
                <mxCell id="1nXE--oQEknWn3eENVXs-34" value="" style="endArrow=none;html=1;strokeColor=#330000;entryX=0.078;entryY=0.804;entryDx=0;entryDy=0;entryPerimeter=0;exitX=0.683;exitY=0.021;exitDx=0;exitDy=0;exitPerimeter=0;" parent="1" source="1nXE--oQEknWn3eENVXs-32" target="1nXE--oQEknWn3eENVXs-26" edge="1">
                    &#xa;
                    <mxGeometry width="50" height="50" relative="1" as="geometry">
                        &#xa;
                        <mxPoint x="307.5" y="1319.5" as="sourcePoint"/>
                        &#xa;
                        <mxPoint x="357.5" y="1269.5" as="targetPoint"/>
                        &#xa;
                    </mxGeometry>
                    &#xa;
                </mxCell>
                &#xa;
                <mxCell id="1nXE--oQEknWn3eENVXs-35" value="" style="endArrow=none;html=1;strokeColor=#330000;exitX=0.5;exitY=0;exitDx=0;exitDy=0;" parent="1" source="1nXE--oQEknWn3eENVXs-29" target="1nXE--oQEknWn3eENVXs-26" edge="1">
                    &#xa;
                    <mxGeometry width="50" height="50" relative="1" as="geometry">
                        &#xa;
                        <mxPoint x="307.5" y="1379.5" as="sourcePoint"/>
                        &#xa;
                        <mxPoint x="357.5" y="1329.5" as="targetPoint"/>
                        &#xa;
                    </mxGeometry>
                    &#xa;
                </mxCell>
                &#xa;
                <mxCell id="1nXE--oQEknWn3eENVXs-36" value="" style="endArrow=none;html=1;strokeColor=#330000;exitX=0.373;exitY=0.041;exitDx=0;exitDy=0;entryX=0.769;entryY=0.942;entryDx=0;entryDy=0;entryPerimeter=0;exitPerimeter=0;" parent="1" source="1nXE--oQEknWn3eENVXs-30" target="1nXE--oQEknWn3eENVXs-26" edge="1">
                    &#xa;
                    <mxGeometry width="50" height="50" relative="1" as="geometry">
                        &#xa;
                        <mxPoint x="507.5" y="1379.5" as="sourcePoint"/>
                        &#xa;
                        <mxPoint x="437.5" y="1207.5" as="targetPoint"/>
                        &#xa;
                    </mxGeometry>
                    &#xa;
                </mxCell>
                &#xa;
                <mxCell id="1nXE--oQEknWn3eENVXs-37" value="" style="endArrow=none;html=1;strokeColor=#330000;entryX=0.965;entryY=0.725;entryDx=0;entryDy=0;entryPerimeter=0;exitX=0;exitY=0;exitDx=0;exitDy=0;" parent="1" source="1nXE--oQEknWn3eENVXs-31" target="1nXE--oQEknWn3eENVXs-26" edge="1">
                    &#xa;
                    <mxGeometry width="50" height="50" relative="1" as="geometry">
                        &#xa;
                        <mxPoint x="507.5" y="1319.5" as="sourcePoint"/>
                        &#xa;
                        <mxPoint x="557.5" y="1269.5" as="targetPoint"/>
                        &#xa;
                    </mxGeometry>
                    &#xa;
                </mxCell>
                &#xa;
                <mxCell id="1nXE--oQEknWn3eENVXs-38" value="" style="endArrow=none;html=1;strokeColor=#330000;entryX=0;entryY=0.5;entryDx=0;entryDy=0;exitX=0.998;exitY=0.571;exitDx=0;exitDy=0;exitPerimeter=0;" parent="1" source="1nXE--oQEknWn3eENVXs-26" target="1nXE--oQEknWn3eENVXs-33" edge="1">
                    &#xa;
                    <mxGeometry width="50" height="50" relative="1" as="geometry">
                        &#xa;
                        <mxPoint x="457.5" y="1179.5" as="sourcePoint"/>
                        &#xa;
                        <mxPoint x="557.5" y="1269.5" as="targetPoint"/>
                        &#xa;
                    </mxGeometry>
                    &#xa;
                </mxCell>
                &#xa;
                <mxCell id="1nXE--oQEknWn3eENVXs-39" value="&lt;font style=&quot;font-size: 12px&quot;&gt;1: เปิด()&lt;/font&gt;" style="text;html=1;strokeColor=none;fillColor=none;align=center;verticalAlign=middle;whiteSpace=wrap;rounded=0;fontSize=13;" parent="1" vertex="1">
                    &#xa;
                    <mxGeometry x="-122.5" y="1199.5" width="50" height="20" as="geometry"/>
                    &#xa;
                </mxCell>
                &#xa;
                <mxCell id="1nXE--oQEknWn3eENVXs-40" value="" style="endArrow=block;html=1;strokeColor=#330000;endFill=1;" parent="1" edge="1">
                    &#xa;
                    <mxGeometry width="50" height="50" relative="1" as="geometry">
                        &#xa;
                        <mxPoint x="-162.5" y="1189.5" as="sourcePoint"/>
                        &#xa;
                        <mxPoint x="-22.5" y="1189.5" as="targetPoint"/>
                        &#xa;
                    </mxGeometry>
                    &#xa;
                </mxCell>
                &#xa;
                <mxCell id="1nXE--oQEknWn3eENVXs-41" value="" style="endArrow=block;html=1;strokeColor=#330000;endFill=1;" parent="1" edge="1">
                    &#xa;
                    <mxGeometry width="50" height="50" relative="1" as="geometry">
                        &#xa;
                        <mxPoint x="257.5" y="1290" as="sourcePoint"/>
                        &#xa;
                        <mxPoint x="167.5" y="1365" as="targetPoint"/>
                        &#xa;
                    </mxGeometry>
                    &#xa;
                </mxCell>
                &#xa;
                <mxCell id="1nXE--oQEknWn3eENVXs-42" value="" style="endArrow=block;html=1;strokeColor=#330000;endFill=1;" parent="1" edge="1">
                    &#xa;
                    <mxGeometry width="50" height="50" relative="1" as="geometry">
                        &#xa;
                        <mxPoint x="205" y="1131" as="sourcePoint"/>
                        &#xa;
                        <mxPoint x="319.5" y="1131.5" as="targetPoint"/>
                        &#xa;
                    </mxGeometry>
                    &#xa;
                </mxCell>
                &#xa;
                <mxCell id="1nXE--oQEknWn3eENVXs-43" value="" style="endArrow=block;html=1;strokeColor=#330000;endFill=1;" parent="1" edge="1">
                    &#xa;
                    <mxGeometry width="50" height="50" relative="1" as="geometry">
                        &#xa;
                        <mxPoint x="360" y="1400" as="sourcePoint"/>
                        &#xa;
                        <mxPoint x="345.5" y="1449.5" as="targetPoint"/>
                        &#xa;
                    </mxGeometry>
                    &#xa;
                </mxCell>
                &#xa;
                <mxCell id="1nXE--oQEknWn3eENVXs-44" value="" style="endArrow=block;html=1;strokeColor=#330000;endFill=1;" parent="1" edge="1">
                    &#xa;
                    <mxGeometry width="50" height="50" relative="1" as="geometry">
                        &#xa;
                        <mxPoint x="540" y="1390" as="sourcePoint"/>
                        &#xa;
                        <mxPoint x="567.5" y="1439.5" as="targetPoint"/>
                        &#xa;
                    </mxGeometry>
                    &#xa;
                </mxCell>
                &#xa;
                <mxCell id="1nXE--oQEknWn3eENVXs-45" value="6: ดึงข้อมูลทั้งหมด()" style="text;html=1;strokeColor=none;fillColor=none;align=center;verticalAlign=middle;whiteSpace=wrap;rounded=0;fontSize=13;" parent="1" vertex="1">
                    &#xa;
                    <mxGeometry x="632.5" y="1262.5" width="120" height="20" as="geometry"/>
                    &#xa;
                </mxCell>
                &#xa;
                <mxCell id="1nXE--oQEknWn3eENVXs-46" value="" style="endArrow=block;html=1;strokeColor=#330000;endFill=1;" parent="1" edge="1">
                    &#xa;
                    <mxGeometry width="50" height="50" relative="1" as="geometry">
                        &#xa;
                        <mxPoint x="620" y="1280" as="sourcePoint"/>
                        &#xa;
                        <mxPoint x="710" y="1325" as="targetPoint"/>
                        &#xa;
                    </mxGeometry>
                    &#xa;
                </mxCell>
                &#xa;
                <mxCell id="1nXE--oQEknWn3eENVXs-47" value="4: ดึงข้อมูลทั้งหมด()" style="text;html=1;strokeColor=none;fillColor=none;align=center;verticalAlign=middle;whiteSpace=wrap;rounded=0;fontSize=13;" parent="1" vertex="1">
                    &#xa;
                    <mxGeometry x="205" y="1101" width="120" height="20" as="geometry"/>
                    &#xa;
                </mxCell>
                &#xa;
                <mxCell id="1nXE--oQEknWn3eENVXs-48" value="9: ดึงข้อมูลผู้ป่วยทั้งหมด()" style="text;html=1;strokeColor=none;fillColor=none;align=center;verticalAlign=middle;whiteSpace=wrap;rounded=0;fontSize=13;" parent="1" vertex="1">
                    &#xa;
                    <mxGeometry x="57.5" y="1305" width="160" height="20" as="geometry"/>
                    &#xa;
                </mxCell>
                &#xa;
                <mxCell id="1nXE--oQEknWn3eENVXs-49" value="7: ดึงข้อมูลทั้งหมด()" style="text;html=1;strokeColor=none;fillColor=none;align=center;verticalAlign=middle;whiteSpace=wrap;rounded=0;fontSize=13;" parent="1" vertex="1">
                    &#xa;
                    <mxGeometry x="435.5" y="1409.5" width="120" height="20" as="geometry"/>
                    &#xa;
                </mxCell>
                &#xa;
                <mxCell id="1nXE--oQEknWn3eENVXs-50" value="8: ดึงข้อมูลทั้งหมด()" style="text;html=1;strokeColor=none;fillColor=none;align=center;verticalAlign=middle;whiteSpace=wrap;rounded=0;fontSize=13;" parent="1" vertex="1">
                    &#xa;
                    <mxGeometry x="235.5" y="1400" width="120" height="20" as="geometry"/>
                    &#xa;
                </mxCell>
                &#xa;
                <mxCell id="1nXE--oQEknWn3eENVXs-51" value="10:&amp;nbsp;&lt;span style=&quot;font-size: 12px&quot;&gt;ค้นหา&lt;/span&gt;&lt;span style=&quot;font-size: 12px&quot;&gt;สิทธิ์ผู้ป่วย&lt;/span&gt;(name)" style="text;html=1;strokeColor=none;fillColor=none;align=center;verticalAlign=middle;whiteSpace=wrap;rounded=0;fontSize=13;" parent="1" vertex="1">
                    &#xa;
                    <mxGeometry x="-183.5" y="1139.5" width="172" height="20" as="geometry"/>
                    &#xa;
                </mxCell>
                &#xa;
                <mxCell id="1nXE--oQEknWn3eENVXs-52" value="" style="endArrow=block;html=1;strokeColor=#330000;endFill=1;" parent="1" edge="1">
                    &#xa;
                    <mxGeometry width="50" height="50" relative="1" as="geometry">
                        &#xa;
                        <mxPoint x="-152.75" y="1172.5" as="sourcePoint"/>
                        &#xa;
                        <mxPoint x="-22.5" y="1172.5" as="targetPoint"/>
                        &#xa;
                        <Array as="points">
                            &#xa;
                            <mxPoint x="-72.25" y="1172"/>
                            &#xa;
                        </Array>
                        &#xa;
                    </mxGeometry>
                    &#xa;
                </mxCell>
                &#xa;
                <mxCell id="1nXE--oQEknWn3eENVXs-53" value="" style="endArrow=block;html=1;strokeColor=#330000;endFill=1;" parent="1" edge="1">
                    &#xa;
                    <mxGeometry width="50" height="50" relative="1" as="geometry">
                        &#xa;
                        <mxPoint x="190.5" y="1169.5" as="sourcePoint"/>
                        &#xa;
                        <mxPoint x="330.5" y="1169.5" as="targetPoint"/>
                        &#xa;
                    </mxGeometry>
                    &#xa;
                </mxCell>
                &#xa;
                <mxCell id="1nXE--oQEknWn3eENVXs-54" value="&lt;font style=&quot;font-size: 12px&quot;&gt;2 : โหลดข้อมูลเลขที่พนักงานเวชระเบียนที่เข้าระบบ(mid)&lt;/font&gt;" style="text;html=1;strokeColor=none;fillColor=none;align=center;verticalAlign=middle;whiteSpace=wrap;rounded=0;" parent="1" vertex="1">
                    &#xa;
                    <mxGeometry x="167.5" y="1139.5" width="195" height="20" as="geometry"/>
                    &#xa;
                </mxCell>
                &#xa;
                <mxCell id="1nXE--oQEknWn3eENVXs-55" value="&lt;font style=&quot;font-size: 12px&quot;&gt;3: ค้นหาพนักงานเวชระเบียน(mid)&lt;/font&gt;" style="text;html=1;strokeColor=none;fillColor=none;align=center;verticalAlign=middle;whiteSpace=wrap;rounded=0;fontSize=13;" parent="1" vertex="1">
                    &#xa;
                    <mxGeometry x="719.5" y="1321.5" width="228" height="20" as="geometry"/>
                    &#xa;
                </mxCell>
                &#xa;
                <mxCell id="1nXE--oQEknWn3eENVXs-56" value="" style="endArrow=block;html=1;strokeColor=#330000;endFill=1;exitX=0;exitY=0.75;exitDx=0;exitDy=0;" parent="1" source="1nXE--oQEknWn3eENVXs-55" edge="1">
                    &#xa;
                    <mxGeometry width="50" height="50" relative="1" as="geometry">
                        &#xa;
                        <mxPoint x="717.5" y="1344.5" as="sourcePoint"/>
                        &#xa;
                        <mxPoint x="787.5" y="1374.5" as="targetPoint"/>
                        &#xa;
                    </mxGeometry>
                    &#xa;
                </mxCell>
                &#xa;
                <mxCell id="1nXE--oQEknWn3eENVXs-57" value="" style="endArrow=block;html=1;strokeColor=#330000;endFill=1;" parent="1" edge="1">
                    &#xa;
                    <mxGeometry width="50" height="50" relative="1" as="geometry">
                        &#xa;
                        <mxPoint x="541.25" y="1169.5" as="sourcePoint"/>
                        &#xa;
                        <mxPoint x="655.75" y="1170" as="targetPoint"/>
                        &#xa;
                    </mxGeometry>
                    &#xa;
                </mxCell>
                &#xa;
                <mxCell id="1nXE--oQEknWn3eENVXs-58" value="5: ดึงข้อมูลสิทธิ์ทั้งหมด()" style="text;html=1;strokeColor=none;fillColor=none;align=center;verticalAlign=middle;whiteSpace=wrap;rounded=0;fontSize=13;" parent="1" vertex="1">
                    &#xa;
                    <mxGeometry x="531.25" y="1139.5" width="137.5" height="20" as="geometry"/>
                    &#xa;
                </mxCell>
                &#xa;
                <mxCell id="1nXE--oQEknWn3eENVXs-59" value="" style="endArrow=block;html=1;strokeColor=#330000;endFill=1;" parent="1" edge="1">
                    &#xa;
                    <mxGeometry width="50" height="50" relative="1" as="geometry">
                        &#xa;
                        <mxPoint x="205" y="1100" as="sourcePoint"/>
                        &#xa;
                        <mxPoint x="319.5" y="1100.5" as="targetPoint"/>
                        &#xa;
                    </mxGeometry>
                    &#xa;
                </mxCell>
                &#xa;
                <mxCell id="1nXE--oQEknWn3eENVXs-60" value="11:&amp;nbsp;&lt;span style=&quot;font-size: 12px&quot;&gt;ค้นหา&lt;/span&gt;&lt;span style=&quot;font-size: 12px&quot;&gt;สิทธิ์ผู้ป่วย&lt;/span&gt;(name)" style="text;html=1;strokeColor=none;fillColor=none;align=center;verticalAlign=middle;whiteSpace=wrap;rounded=0;fontSize=13;" parent="1" vertex="1">
                    &#xa;
                    <mxGeometry x="183.75" y="1070" width="162.5" height="20" as="geometry"/>
                    &#xa;
                </mxCell>
                &#xa;
                <mxCell id="1nXE--oQEknWn3eENVXs-61" value="12:&amp;nbsp;&lt;span style=&quot;font-size: 12px&quot;&gt;ค้นหา&lt;/span&gt;&lt;span style=&quot;font-size: 12px&quot;&gt;สิทธิ์ผู้ป่วย&lt;/span&gt;(name)" style="text;html=1;strokeColor=none;fillColor=none;align=center;verticalAlign=middle;whiteSpace=wrap;rounded=0;fontSize=13;" parent="1" vertex="1">
                    &#xa;
                    <mxGeometry x="525" y="1101" width="162.5" height="20" as="geometry"/>
                    &#xa;
                </mxCell>
                &#xa;
                <mxCell id="1nXE--oQEknWn3eENVXs-62" value="" style="endArrow=block;html=1;strokeColor=#330000;endFill=1;" parent="1" edge="1">
                    &#xa;
                    <mxGeometry width="50" height="50" relative="1" as="geometry">
                        &#xa;
                        <mxPoint x="542.7499999999995" y="1129.5" as="sourcePoint"/>
                        &#xa;
                        <mxPoint x="657.25" y="1130" as="targetPoint"/>
                        &#xa;
                    </mxGeometry>
                    &#xa;
                </mxCell>
                &#xa;
                <mxCell id="1nXE--oQEknWn3eENVXs-63" value="" style="endArrow=block;html=1;strokeColor=#330000;endFill=1;" parent="1" edge="1">
                    &#xa;
                    <mxGeometry width="50" height="50" relative="1" as="geometry">
                        &#xa;
                        <mxPoint x="355.5" y="1207.5" as="sourcePoint"/>
                        &#xa;
                        <mxPoint x="265.5" y="1282.5" as="targetPoint"/>
                        &#xa;
                    </mxGeometry>
                    &#xa;
                </mxCell>
                &#xa;
                <mxCell id="1nXE--oQEknWn3eENVXs-64" value="16:&amp;nbsp;&lt;span style=&quot;font-size: 12px&quot;&gt;ค้นหา&lt;/span&gt;&lt;span style=&quot;font-size: 12px&quot;&gt;สิทธิ์ผู้ป่วย&lt;/span&gt;(name)" style="text;html=1;strokeColor=none;fillColor=none;align=center;verticalAlign=middle;whiteSpace=wrap;rounded=0;fontSize=13;" parent="1" vertex="1">
                    &#xa;
                    <mxGeometry x="155.5" y="1222.5" width="160" height="20" as="geometry"/>
                    &#xa;
                </mxCell>
                &#xa;
                <mxCell id="1nXE--oQEknWn3eENVXs-65" value="" style="endArrow=block;html=1;strokeColor=#330000;endFill=1;" parent="1" edge="1">
                    &#xa;
                    <mxGeometry width="50" height="50" relative="1" as="geometry">
                        &#xa;
                        <mxPoint x="383.75" y="1300.75" as="sourcePoint"/>
                        &#xa;
                        <mxPoint x="362.5" y="1362.25" as="targetPoint"/>
                        &#xa;
                    </mxGeometry>
                    &#xa;
                </mxCell>
                &#xa;
                <mxCell id="1nXE--oQEknWn3eENVXs-66" value="15:&amp;nbsp;&lt;span style=&quot;font-size: 12px&quot;&gt;ค้นหา&lt;/span&gt;&lt;span style=&quot;font-size: 12px&quot;&gt;สิทธิ์ผู้ป่วย&lt;/span&gt;(name)" style="text;html=1;strokeColor=none;fillColor=none;align=center;verticalAlign=middle;whiteSpace=wrap;rounded=0;fontSize=13;" parent="1" vertex="1">
                    &#xa;
                    <mxGeometry x="247.5" y="1320" width="120" height="20" as="geometry"/>
                    &#xa;
                </mxCell>
                &#xa;
                <mxCell id="1nXE--oQEknWn3eENVXs-67" value="" style="endArrow=block;html=1;strokeColor=#330000;endFill=1;" parent="1" edge="1">
                    &#xa;
                    <mxGeometry width="50" height="50" relative="1" as="geometry">
                        &#xa;
                        <mxPoint x="490" y="1320" as="sourcePoint"/>
                        &#xa;
                        <mxPoint x="525" y="1379.5" as="targetPoint"/>
                        &#xa;
                    </mxGeometry>
                    &#xa;
                </mxCell>
                &#xa;
                <mxCell id="1nXE--oQEknWn3eENVXs-68" value="14:&amp;nbsp;&lt;span style=&quot;font-size: 12px&quot;&gt;ค้นหา&lt;/span&gt;&lt;span style=&quot;font-size: 12px&quot;&gt;สิทธิ์ผู้ป่วย&lt;/span&gt;(name)" style="text;html=1;strokeColor=none;fillColor=none;align=center;verticalAlign=middle;whiteSpace=wrap;rounded=0;fontSize=13;" parent="1" vertex="1">
                    &#xa;
                    <mxGeometry x="393" y="1341.5" width="120" height="20" as="geometry"/>
                    &#xa;
                </mxCell>
                &#xa;
                <mxCell id="1nXE--oQEknWn3eENVXs-69" value="13:&amp;nbsp;&lt;span style=&quot;font-size: 12px&quot;&gt;ค้นหา&lt;/span&gt;&lt;span style=&quot;font-size: 12px&quot;&gt;สิทธิ์ผู้ป่วย&lt;/span&gt;(name)" style="text;html=1;strokeColor=none;fillColor=none;align=center;verticalAlign=middle;whiteSpace=wrap;rounded=0;fontSize=13;" parent="1" vertex="1">
                    &#xa;
                    <mxGeometry x="537.5" y="1209.5" width="120" height="20" as="geometry"/>
                    &#xa;
                </mxCell>
                &#xa;
                <mxCell id="1nXE--oQEknWn3eENVXs-70" value="" style="endArrow=block;html=1;strokeColor=#330000;endFill=1;" parent="1" edge="1">
                    &#xa;
                    <mxGeometry width="50" height="50" relative="1" as="geometry">
                        &#xa;
                        <mxPoint x="525" y="1227" as="sourcePoint"/>
                        &#xa;
                        <mxPoint x="615" y="1272" as="targetPoint"/>
                        &#xa;
                    </mxGeometry>
                    &#xa;
                </mxCell>
                &#xa;
                <mxCell id="1nXE--oQEknWn3eENVXs-71" value="" style="edgeStyle=orthogonalEdgeStyle;rounded=0;orthogonalLoop=1;jettySize=auto;html=1;endArrow=none;endFill=0;strokeColor=#330000;entryX=-0.006;entryY=0.505;entryDx=0;entryDy=0;entryPerimeter=0;" parent="1" source="1nXE--oQEknWn3eENVXs-72" target="1nXE--oQEknWn3eENVXs-73" edge="1">
                    &#xa;
                    <mxGeometry relative="1" as="geometry">
                        &#xa;
                        <mxPoint x="1750" y="549.75" as="targetPoint"/>
                        &#xa;
                    </mxGeometry>
                    &#xa;
                </mxCell>
                &#xa;
                <mxCell id="1nXE--oQEknWn3eENVXs-72" value=":Search&lt;br&gt;Patientrights&lt;br style=&quot;font-size: 13px&quot;&gt;UI" style="shape=umlBoundary;whiteSpace=wrap;html=1;fontSize=13;" parent="1" vertex="1">
                    &#xa;
                    <mxGeometry x="1580" y="509.75" width="100" height="80" as="geometry"/>
                    &#xa;
                </mxCell>
                &#xa;
                <mxCell id="1nXE--oQEknWn3eENVXs-73" value="&lt;font&gt;&lt;font style=&quot;font-size: 12px&quot;&gt;:Patientrights&lt;br&gt;Controller&lt;/font&gt;&lt;br style=&quot;font-size: 13px&quot;&gt;&lt;/font&gt;" style="ellipse;shape=umlControl;whiteSpace=wrap;html=1;fontSize=13;" parent="1" vertex="1">
                    &#xa;
                    <mxGeometry x="1925" y="502.25" width="85" height="95" as="geometry"/>
                    &#xa;
                </mxCell>
                &#xa;
                <mxCell id="1nXE--oQEknWn3eENVXs-74" value="" style="edgeStyle=orthogonalEdgeStyle;rounded=0;orthogonalLoop=1;jettySize=auto;html=1;endArrow=none;endFill=0;strokeColor=#330000;entryX=0.002;entryY=0.502;entryDx=0;entryDy=0;entryPerimeter=0;" parent="1" source="1nXE--oQEknWn3eENVXs-75" target="1nXE--oQEknWn3eENVXs-72" edge="1">
                    &#xa;
                    <mxGeometry relative="1" as="geometry">
                        &#xa;
                        <mxPoint x="1345" y="549.75" as="targetPoint"/>
                        &#xa;
                    </mxGeometry>
                    &#xa;
                </mxCell>
                &#xa;
                <mxCell id="1nXE--oQEknWn3eENVXs-75" value="&lt;font style=&quot;font-size: 13px&quot;&gt;:พนักงานเวชระเบียน&lt;/font&gt;" style="shape=umlActor;verticalLabelPosition=bottom;verticalAlign=top;html=1;" parent="1" vertex="1">
                    &#xa;
                    <mxGeometry x="1280" y="519.75" width="30" height="60" as="geometry"/>
                    &#xa;
                </mxCell>
                &#xa;
                <mxCell id="1nXE--oQEknWn3eENVXs-78" value="&lt;font style=&quot;font-size: 12px&quot;&gt;:Medicalre&lt;br&gt;cordstaff&lt;/font&gt;" style="ellipse;shape=umlEntity;whiteSpace=wrap;html=1;fontSize=13;" parent="1" vertex="1">
                    &#xa;
                    <mxGeometry x="1993.75" y="760" width="80" height="80" as="geometry"/>
                    &#xa;
                </mxCell>
                &#xa;
                <mxCell id="1nXE--oQEknWn3eENVXs-79" value="&lt;font style=&quot;font-size: 12px&quot;&gt;:Patientrecord&lt;/font&gt;" style="ellipse;shape=umlEntity;whiteSpace=wrap;html=1;fontSize=13;" parent="1" vertex="1">
                    &#xa;
                    <mxGeometry x="1660" y="749.75" width="80" height="80" as="geometry"/>
                    &#xa;
                </mxCell>
                &#xa;
                <mxCell id="1nXE--oQEknWn3eENVXs-80" value=":Patientrights" style="ellipse;shape=umlEntity;whiteSpace=wrap;html=1;fillColor=#fff2cc;strokeColor=#d6b656;fontSize=13;" parent="1" vertex="1">
                    &#xa;
                    <mxGeometry x="2260" y="509.75" width="90" height="90" as="geometry"/>
                    &#xa;
                </mxCell>
                &#xa;
                <mxCell id="1nXE--oQEknWn3eENVXs-81" value="" style="endArrow=none;html=1;strokeColor=#330000;entryX=0.078;entryY=0.804;entryDx=0;entryDy=0;entryPerimeter=0;exitX=0.683;exitY=0.021;exitDx=0;exitDy=0;exitPerimeter=0;" parent="1" source="1nXE--oQEknWn3eENVXs-79" target="1nXE--oQEknWn3eENVXs-73" edge="1">
                    &#xa;
                    <mxGeometry width="50" height="50" relative="1" as="geometry">
                        &#xa;
                        <mxPoint x="1850" y="689.75" as="sourcePoint"/>
                        &#xa;
                        <mxPoint x="1900" y="639.75" as="targetPoint"/>
                        &#xa;
                    </mxGeometry>
                    &#xa;
                </mxCell>
                &#xa;
                <mxCell id="1nXE--oQEknWn3eENVXs-84" value="" style="endArrow=none;html=1;strokeColor=#330000;exitX=0.5;exitY=0;exitDx=0;exitDy=0;" parent="1" source="1nXE--oQEknWn3eENVXs-78" target="1nXE--oQEknWn3eENVXs-73" edge="1">
                    &#xa;
                    <mxGeometry width="50" height="50" relative="1" as="geometry">
                        &#xa;
                        <mxPoint x="2050" y="689.75" as="sourcePoint"/>
                        &#xa;
                        <mxPoint x="2100" y="639.75" as="targetPoint"/>
                        &#xa;
                    </mxGeometry>
                    &#xa;
                </mxCell>
                &#xa;
                <mxCell id="1nXE--oQEknWn3eENVXs-85" value="" style="endArrow=none;html=1;strokeColor=#330000;entryX=0;entryY=0.5;entryDx=0;entryDy=0;exitX=0.998;exitY=0.571;exitDx=0;exitDy=0;exitPerimeter=0;" parent="1" source="1nXE--oQEknWn3eENVXs-73" target="1nXE--oQEknWn3eENVXs-80" edge="1">
                    &#xa;
                    <mxGeometry width="50" height="50" relative="1" as="geometry">
                        &#xa;
                        <mxPoint x="2000" y="549.75" as="sourcePoint"/>
                        &#xa;
                        <mxPoint x="2100" y="639.75" as="targetPoint"/>
                        &#xa;
                    </mxGeometry>
                    &#xa;
                </mxCell>
                &#xa;
                <mxCell id="1nXE--oQEknWn3eENVXs-86" value="&lt;font style=&quot;font-size: 12px&quot;&gt;1: เปิด()&lt;/font&gt;" style="text;html=1;strokeColor=none;fillColor=none;align=center;verticalAlign=middle;whiteSpace=wrap;rounded=0;fontSize=13;" parent="1" vertex="1">
                    &#xa;
                    <mxGeometry x="1420" y="569.75" width="50" height="20" as="geometry"/>
                    &#xa;
                </mxCell>
                &#xa;
                <mxCell id="1nXE--oQEknWn3eENVXs-87" value="" style="endArrow=block;html=1;strokeColor=#330000;endFill=1;" parent="1" edge="1">
                    &#xa;
                    <mxGeometry width="50" height="50" relative="1" as="geometry">
                        &#xa;
                        <mxPoint x="1380" y="559.75" as="sourcePoint"/>
                        &#xa;
                        <mxPoint x="1520" y="559.75" as="targetPoint"/>
                        &#xa;
                    </mxGeometry>
                    &#xa;
                </mxCell>
                &#xa;
                <mxCell id="1nXE--oQEknWn3eENVXs-88" value="" style="endArrow=block;html=1;strokeColor=#330000;endFill=1;" parent="1" edge="1">
                    &#xa;
                    <mxGeometry width="50" height="50" relative="1" as="geometry">
                        &#xa;
                        <mxPoint x="1820" y="639.75" as="sourcePoint"/>
                        &#xa;
                        <mxPoint x="1730" y="714.75" as="targetPoint"/>
                        &#xa;
                    </mxGeometry>
                    &#xa;
                </mxCell>
                &#xa;
                <mxCell id="1nXE--oQEknWn3eENVXs-89" value="" style="endArrow=block;html=1;strokeColor=#330000;endFill=1;" parent="1" edge="1">
                    &#xa;
                    <mxGeometry width="50" height="50" relative="1" as="geometry">
                        &#xa;
                        <mxPoint x="1747.5" y="501.25" as="sourcePoint"/>
                        &#xa;
                        <mxPoint x="1862" y="501.75" as="targetPoint"/>
                        &#xa;
                    </mxGeometry>
                    &#xa;
                </mxCell>
                &#xa;
                <mxCell id="1nXE--oQEknWn3eENVXs-94" value="5: ดึงข้อมูลทั้งหมด()" style="text;html=1;strokeColor=none;fillColor=none;align=center;verticalAlign=middle;whiteSpace=wrap;rounded=0;fontSize=13;" parent="1" vertex="1">
                    &#xa;
                    <mxGeometry x="1747.5" y="471.25" width="120" height="20" as="geometry"/>
                    &#xa;
                </mxCell>
                &#xa;
                <mxCell id="1nXE--oQEknWn3eENVXs-95" value="4: ดึงข้อมูลผู้ป่วยทั้งหมด()" style="text;html=1;strokeColor=none;fillColor=none;align=center;verticalAlign=middle;whiteSpace=wrap;rounded=0;fontSize=13;" parent="1" vertex="1">
                    &#xa;
                    <mxGeometry x="1620" y="654.75" width="160" height="20" as="geometry"/>
                    &#xa;
                </mxCell>
                &#xa;
                <mxCell id="1nXE--oQEknWn3eENVXs-98" value="7:&amp;nbsp;&lt;span style=&quot;font-size: 12px&quot;&gt;ค้นหา&lt;/span&gt;&lt;span style=&quot;font-size: 12px&quot;&gt;สิทธิ์ผู้ป่วย&lt;/span&gt;(name)" style="text;html=1;strokeColor=none;fillColor=none;align=center;verticalAlign=middle;whiteSpace=wrap;rounded=0;fontSize=13;" parent="1" vertex="1">
                    &#xa;
                    <mxGeometry x="1359" y="509.75" width="172" height="20" as="geometry"/>
                    &#xa;
                </mxCell>
                &#xa;
                <mxCell id="1nXE--oQEknWn3eENVXs-99" value="" style="endArrow=block;html=1;strokeColor=#330000;endFill=1;" parent="1" edge="1">
                    &#xa;
                    <mxGeometry width="50" height="50" relative="1" as="geometry">
                        &#xa;
                        <mxPoint x="1389.75" y="542.75" as="sourcePoint"/>
                        &#xa;
                        <mxPoint x="1520" y="542.75" as="targetPoint"/>
                        &#xa;
                        <Array as="points">
                            &#xa;
                            <mxPoint x="1470.25" y="542.25"/>
                            &#xa;
                        </Array>
                        &#xa;
                    </mxGeometry>
                    &#xa;
                </mxCell>
                &#xa;
                <mxCell id="1nXE--oQEknWn3eENVXs-100" value="" style="endArrow=block;html=1;strokeColor=#330000;endFill=1;" parent="1" edge="1">
                    &#xa;
                    <mxGeometry width="50" height="50" relative="1" as="geometry">
                        &#xa;
                        <mxPoint x="1733" y="539.75" as="sourcePoint"/>
                        &#xa;
                        <mxPoint x="1873" y="539.75" as="targetPoint"/>
                        &#xa;
                    </mxGeometry>
                    &#xa;
                </mxCell>
                &#xa;
                <mxCell id="1nXE--oQEknWn3eENVXs-101" value="&lt;font style=&quot;font-size: 12px&quot;&gt;2 : โหลดข้อมูลเลขที่พนักงานเวชระเบียนที่เข้าระบบ(mid)&lt;/font&gt;" style="text;html=1;strokeColor=none;fillColor=none;align=center;verticalAlign=middle;whiteSpace=wrap;rounded=0;" parent="1" vertex="1">
                    &#xa;
                    <mxGeometry x="1710" y="509.75" width="195" height="20" as="geometry"/>
                    &#xa;
                </mxCell>
                &#xa;
                <mxCell id="1nXE--oQEknWn3eENVXs-102" value="&lt;font style=&quot;font-size: 12px&quot;&gt;3: ค้นหาพนักงานเวชระเบียน(mid)&lt;/font&gt;" style="text;html=1;strokeColor=none;fillColor=none;align=center;verticalAlign=middle;whiteSpace=wrap;rounded=0;fontSize=13;" parent="1" vertex="1">
                    &#xa;
                    <mxGeometry x="2010" y="660" width="228" height="20" as="geometry"/>
                    &#xa;
                </mxCell>
                &#xa;
                <mxCell id="1nXE--oQEknWn3eENVXs-103" value="" style="endArrow=block;html=1;strokeColor=#330000;endFill=1;" parent="1" edge="1">
                    &#xa;
                    <mxGeometry width="50" height="50" relative="1" as="geometry">
                        &#xa;
                        <mxPoint x="2020" y="663" as="sourcePoint"/>
                        &#xa;
                        <mxPoint x="2050" y="730" as="targetPoint"/>
                        &#xa;
                    </mxGeometry>
                    &#xa;
                </mxCell>
                &#xa;
                <mxCell id="1nXE--oQEknWn3eENVXs-104" value="" style="endArrow=block;html=1;strokeColor=#330000;endFill=1;" parent="1" edge="1">
                    &#xa;
                    <mxGeometry width="50" height="50" relative="1" as="geometry">
                        &#xa;
                        <mxPoint x="2083.75" y="539.75" as="sourcePoint"/>
                        &#xa;
                        <mxPoint x="2198.25" y="540.25" as="targetPoint"/>
                        &#xa;
                    </mxGeometry>
                    &#xa;
                </mxCell>
                &#xa;
                <mxCell id="1nXE--oQEknWn3eENVXs-105" value="6: ดึงข้อมูลสิทธิ์ทั้งหมด()" style="text;html=1;strokeColor=none;fillColor=none;align=center;verticalAlign=middle;whiteSpace=wrap;rounded=0;fontSize=13;" parent="1" vertex="1">
                    &#xa;
                    <mxGeometry x="2073.75" y="509.75" width="137.5" height="20" as="geometry"/>
                    &#xa;
                </mxCell>
                &#xa;
                <mxCell id="1nXE--oQEknWn3eENVXs-106" value="" style="endArrow=block;html=1;strokeColor=#330000;endFill=1;" parent="1" edge="1">
                    &#xa;
                    <mxGeometry width="50" height="50" relative="1" as="geometry">
                        &#xa;
                        <mxPoint x="1747.5" y="470.25" as="sourcePoint"/>
                        &#xa;
                        <mxPoint x="1862" y="470.75" as="targetPoint"/>
                        &#xa;
                    </mxGeometry>
                    &#xa;
                </mxCell>
                &#xa;
                <mxCell id="1nXE--oQEknWn3eENVXs-107" value="8:&amp;nbsp;&lt;span style=&quot;font-size: 12px&quot;&gt;ค้นหา&lt;/span&gt;&lt;span style=&quot;font-size: 12px&quot;&gt;สิทธิ์ผู้ป่วย&lt;/span&gt;(name)" style="text;html=1;strokeColor=none;fillColor=none;align=center;verticalAlign=middle;whiteSpace=wrap;rounded=0;fontSize=13;" parent="1" vertex="1">
                    &#xa;
                    <mxGeometry x="1726.25" y="440.25" width="162.5" height="20" as="geometry"/>
                    &#xa;
                </mxCell>
                &#xa;
                <mxCell id="1nXE--oQEknWn3eENVXs-108" value="9:&amp;nbsp;&lt;span style=&quot;font-size: 12px&quot;&gt;ค้นหา&lt;/span&gt;&lt;span style=&quot;font-size: 12px&quot;&gt;สิทธิ์ผู้ป่วย&lt;/span&gt;(name)" style="text;html=1;strokeColor=none;fillColor=none;align=center;verticalAlign=middle;whiteSpace=wrap;rounded=0;fontSize=13;" parent="1" vertex="1">
                    &#xa;
                    <mxGeometry x="2067.5" y="471.25" width="162.5" height="20" as="geometry"/>
                    &#xa;
                </mxCell>
                &#xa;
                <mxCell id="1nXE--oQEknWn3eENVXs-109" value="" style="endArrow=block;html=1;strokeColor=#330000;endFill=1;" parent="1" edge="1">
                    &#xa;
                    <mxGeometry width="50" height="50" relative="1" as="geometry">
                        &#xa;
                        <mxPoint x="2085.2499999999995" y="499.75" as="sourcePoint"/>
                        &#xa;
                        <mxPoint x="2199.75" y="500.25" as="targetPoint"/>
                        &#xa;
                    </mxGeometry>
                    &#xa;
                </mxCell>
                &#xa;
            </root>
            &#xa;
        </mxGraphModel>
        &#xa;
    </diagram>
    <diagram id="9OtMg5kcq7ys0b88Z_S4" name="Class Diagram ( ทั้ง Entity, Boundary, Control">
        &#xa;
        <mxGraphModel dx="1817" dy="575" grid="1" gridSize="10" guides="1" tooltips="1" connect="1" arrows="1" fold="1" page="1" pageScale="1" pageWidth="827" pageHeight="1169" math="0" shadow="0">
            &#xa;            &#xa;            &#xa;&#xa;&#xa;
            <root>
                &#xa;                &#xa;                &#xa;&#xa;&#xa;
                <mxCell id="KtXMnVQGv9gxdhzujqgW-0"/>
                &#xa;                &#xa;                &#xa;&#xa;&#xa;
                <mxCell id="KtXMnVQGv9gxdhzujqgW-1" parent="KtXMnVQGv9gxdhzujqgW-0"/>
                &#xa;                &#xa;                &#xa;&#xa;&#xa;
                <mxCell id="KtXMnVQGv9gxdhzujqgW-2" value="Search&lt;br&gt;Patientrights&lt;br&gt;UI" style="shape=umlBoundary;whiteSpace=wrap;html=1;fontSize=13;" parent="KtXMnVQGv9gxdhzujqgW-1" vertex="1">
                    &#xa;                    &#xa;                    &#xa;&#xa;&#xa;
                    <mxGeometry x="-180" y="160" width="100" height="80" as="geometry"/>
                    &#xa;                    &#xa;                    &#xa;&#xa;&#xa;
                </mxCell>
                &#xa;                &#xa;                &#xa;&#xa;&#xa;
                <mxCell id="KtXMnVQGv9gxdhzujqgW-3" value="&lt;font style=&quot;font-size: 13px&quot;&gt;Patientrights&lt;br&gt;Controller&lt;br&gt;&lt;/font&gt;" style="ellipse;shape=umlControl;whiteSpace=wrap;html=1;" parent="KtXMnVQGv9gxdhzujqgW-1" vertex="1">
                    &#xa;                    &#xa;                    &#xa;&#xa;&#xa;
                    <mxGeometry x="60" y="150" width="80" height="90" as="geometry"/>
                    &#xa;                    &#xa;                    &#xa;&#xa;&#xa;
                </mxCell>
                &#xa;                &#xa;                &#xa;&#xa;&#xa;
                <mxCell id="KtXMnVQGv9gxdhzujqgW-20" value="&lt;&lt;Entity&gt;&gt;&#10;Insurance" style="swimlane;fontStyle=0;childLayout=stackLayout;horizontal=1;startSize=40;fillColor=none;horizontalStack=0;resizeParent=1;resizeParentMax=0;resizeLast=0;collapsible=1;marginBottom=0;" parent="KtXMnVQGv9gxdhzujqgW-1" vertex="1">
                    &#xa;                    &#xa;                    &#xa;&#xa;&#xa;
                    <mxGeometry x="234.57" y="635.9000000000001" width="186.43" height="92" as="geometry"/>
                    &#xa;                    &#xa;                    &#xa;&#xa;&#xa;
                </mxCell>
                &#xa;                &#xa;                &#xa;&#xa;&#xa;
                <mxCell id="KtXMnVQGv9gxdhzujqgW-21" value="+ id: int" style="text;strokeColor=none;fillColor=none;align=left;verticalAlign=top;spacingLeft=4;spacingRight=4;overflow=hidden;rotatable=0;points=[[0,0.5],[1,0.5]];portConstraint=eastwest;" parent="KtXMnVQGv9gxdhzujqgW-20" vertex="1">
                    &#xa;                    &#xa;                    &#xa;&#xa;&#xa;
                    <mxGeometry y="40" width="186.43" height="26" as="geometry"/>
                    &#xa;                    &#xa;                    &#xa;&#xa;&#xa;
                </mxCell>
                &#xa;                &#xa;                &#xa;&#xa;&#xa;
                <mxCell id="KtXMnVQGv9gxdhzujqgW-22" value="+ Insurancecompany: string" style="text;strokeColor=none;fillColor=none;align=left;verticalAlign=top;spacingLeft=4;spacingRight=4;overflow=hidden;rotatable=0;points=[[0,0.5],[1,0.5]];portConstraint=eastwest;" parent="KtXMnVQGv9gxdhzujqgW-20" vertex="1">
                    &#xa;                    &#xa;                    &#xa;&#xa;&#xa;
                    <mxGeometry y="66" width="186.43" height="26" as="geometry"/>
                    &#xa;                    &#xa;                    &#xa;&#xa;&#xa;
                </mxCell>
                &#xa;                &#xa;                &#xa;&#xa;&#xa;
                <mxCell id="KtXMnVQGv9gxdhzujqgW-30" value="" style="endArrow=diamondThin;html=1;strokeColor=#330000;endFill=0;endSize=25;" parent="KtXMnVQGv9gxdhzujqgW-1" source="KtXMnVQGv9gxdhzujqgW-20" target="KtXMnVQGv9gxdhzujqgW-78" edge="1">
                    &#xa;                    &#xa;                    &#xa;&#xa;&#xa;
                    <mxGeometry width="50" height="50" relative="1" as="geometry">
                        &#xa;                        &#xa;                        &#xa;&#xa;&#xa;
                        <mxPoint x="160" y="269.5" as="sourcePoint"/>
                        &#xa;                        &#xa;                        &#xa;&#xa;&#xa;
                        <mxPoint x="450" y="265" as="targetPoint"/>
                        &#xa;                        &#xa;                        &#xa;&#xa;&#xa;
                    </mxGeometry>
                    &#xa;                    &#xa;                    &#xa;&#xa;&#xa;
                </mxCell>
                &#xa;                &#xa;                &#xa;&#xa;&#xa;
                <mxCell id="KtXMnVQGv9gxdhzujqgW-31" value="1" style="edgeLabel;html=1;align=center;verticalAlign=middle;resizable=0;points=[];fontSize=12;" parent="KtXMnVQGv9gxdhzujqgW-30" vertex="1" connectable="0">
                    &#xa;                    &#xa;                    &#xa;&#xa;&#xa;
                    <mxGeometry x="-0.8143" relative="1" as="geometry">
                        &#xa;                        &#xa;                        &#xa;&#xa;&#xa;
                        <mxPoint x="23.26" y="7.940000000000001" as="offset"/>
                        &#xa;                        &#xa;                        &#xa;&#xa;&#xa;
                    </mxGeometry>
                    &#xa;                    &#xa;                    &#xa;&#xa;&#xa;
                </mxCell>
                &#xa;                &#xa;                &#xa;&#xa;&#xa;
                <mxCell id="KtXMnVQGv9gxdhzujqgW-32" value="0..*" style="edgeLabel;html=1;align=center;verticalAlign=middle;resizable=0;points=[];fontSize=12;" parent="KtXMnVQGv9gxdhzujqgW-30" vertex="1" connectable="0">
                    &#xa;                    &#xa;                    &#xa;&#xa;&#xa;
                    <mxGeometry x="0.5559" y="2" relative="1" as="geometry">
                        &#xa;                        &#xa;                        &#xa;&#xa;&#xa;
                        <mxPoint x="22.49" y="-11.5" as="offset"/>
                        &#xa;                        &#xa;                        &#xa;&#xa;&#xa;
                    </mxGeometry>
                    &#xa;                    &#xa;                    &#xa;&#xa;&#xa;
                </mxCell>
                &#xa;                &#xa;                &#xa;&#xa;&#xa;
                <mxCell id="KtXMnVQGv9gxdhzujqgW-69" value="&lt;&lt;Entity&gt;&gt;&#10;PatientRights" style="swimlane;fontStyle=0;childLayout=stackLayout;horizontal=1;startSize=40;fillColor=#fff2cc;horizontalStack=0;resizeParent=1;resizeParentMax=0;resizeLast=0;collapsible=1;marginBottom=0;strokeColor=#d6b656;" parent="KtXMnVQGv9gxdhzujqgW-1" vertex="1">
                    &#xa;                    &#xa;                    &#xa;&#xa;&#xa;
                    <mxGeometry x="220" y="220" width="220" height="170" as="geometry">
                        &#xa;                        &#xa;                        &#xa;&#xa;&#xa;
                        <mxRectangle x="220" y="220" width="100" height="26" as="alternateBounds"/>
                        &#xa;                        &#xa;                        &#xa;&#xa;&#xa;
                    </mxGeometry>
                    &#xa;                    &#xa;                    &#xa;&#xa;&#xa;
                </mxCell>
                &#xa;                &#xa;                &#xa;&#xa;&#xa;
                <mxCell id="KtXMnVQGv9gxdhzujqgW-70" value="+ id: int" style="text;strokeColor=none;fillColor=none;align=left;verticalAlign=top;spacingLeft=4;spacingRight=4;overflow=hidden;rotatable=0;points=[[0,0.5],[1,0.5]];portConstraint=eastwest;" parent="KtXMnVQGv9gxdhzujqgW-69" vertex="1">
                    &#xa;                    &#xa;                    &#xa;&#xa;&#xa;
                    <mxGeometry y="40" width="220" height="26" as="geometry"/>
                    &#xa;                    &#xa;                    &#xa;&#xa;&#xa;
                </mxCell>
                &#xa;                &#xa;                &#xa;&#xa;&#xa;
                <mxCell id="KtXMnVQGv9gxdhzujqgW-71" value="+ PermissionDate: time" style="text;strokeColor=none;fillColor=none;align=left;verticalAlign=top;spacingLeft=4;spacingRight=4;overflow=hidden;rotatable=0;points=[[0,0.5],[1,0.5]];portConstraint=eastwest;" parent="KtXMnVQGv9gxdhzujqgW-69" vertex="1">
                    &#xa;                    &#xa;                    &#xa;&#xa;&#xa;
                    <mxGeometry y="66" width="220" height="26" as="geometry"/>
                    &#xa;                    &#xa;                    &#xa;&#xa;&#xa;
                </mxCell>
                &#xa;                &#xa;                &#xa;&#xa;&#xa;
                <mxCell id="KtXMnVQGv9gxdhzujqgW-77" value="+ Permission: string" style="text;strokeColor=none;fillColor=none;align=left;verticalAlign=top;spacingLeft=4;spacingRight=4;overflow=hidden;rotatable=0;points=[[0,0.5],[1,0.5]];portConstraint=eastwest;" parent="KtXMnVQGv9gxdhzujqgW-69" vertex="1">
                    &#xa;                    &#xa;                    &#xa;&#xa;&#xa;
                    <mxGeometry y="92" width="220" height="26" as="geometry"/>
                    &#xa;                    &#xa;                    &#xa;&#xa;&#xa;
                </mxCell>
                &#xa;                &#xa;                &#xa;&#xa;&#xa;
                <mxCell id="eFgCbqo-LIXHvoN0-QXY-0" value="+ PermissionArea: string" style="text;strokeColor=none;fillColor=none;align=left;verticalAlign=top;spacingLeft=4;spacingRight=4;overflow=hidden;rotatable=0;points=[[0,0.5],[1,0.5]];portConstraint=eastwest;" parent="KtXMnVQGv9gxdhzujqgW-69" vertex="1">
                    &#xa;                    &#xa;                    &#xa;&#xa;&#xa;
                    <mxGeometry y="118" width="220" height="26" as="geometry"/>
                    &#xa;                    &#xa;                    &#xa;&#xa;&#xa;
                </mxCell>
                &#xa;                &#xa;                &#xa;&#xa;&#xa;
                <mxCell id="KtXMnVQGv9gxdhzujqgW-78" value="+ Responsible: string" style="text;strokeColor=none;fillColor=none;align=left;verticalAlign=top;spacingLeft=4;spacingRight=4;overflow=hidden;rotatable=0;points=[[0,0.5],[1,0.5]];portConstraint=eastwest;" parent="KtXMnVQGv9gxdhzujqgW-69" vertex="1">
                    &#xa;                    &#xa;                    &#xa;&#xa;&#xa;
                    <mxGeometry y="144" width="220" height="26" as="geometry"/>
                    &#xa;                    &#xa;                    &#xa;&#xa;&#xa;
                </mxCell>
                &#xa;                &#xa;                &#xa;&#xa;&#xa;
                <mxCell id="KtXMnVQGv9gxdhzujqgW-79" value="&lt;&lt;Entity&gt;&gt;&#10;AbilityPatientRights" style="swimlane;fontStyle=0;childLayout=stackLayout;horizontal=1;startSize=40;fillColor=none;horizontalStack=0;resizeParent=1;resizeParentMax=0;resizeLast=0;collapsible=1;marginBottom=0;" parent="KtXMnVQGv9gxdhzujqgW-1" vertex="1">
                    &#xa;                    &#xa;                    &#xa;&#xa;&#xa;
                    <mxGeometry x="-200" y="266" width="190" height="196" as="geometry"/>
                    &#xa;                    &#xa;                    &#xa;&#xa;&#xa;
                </mxCell>
                &#xa;                &#xa;                &#xa;&#xa;&#xa;
                <mxCell id="tTvDiXppMQmByJ-DRf3X-0" value="+ id: int" style="text;strokeColor=none;fillColor=none;align=left;verticalAlign=top;spacingLeft=4;spacingRight=4;overflow=hidden;rotatable=0;points=[[0,0.5],[1,0.5]];portConstraint=eastwest;" parent="KtXMnVQGv9gxdhzujqgW-79" vertex="1">
                    &#xa;                    &#xa;                    &#xa;&#xa;&#xa;
                    <mxGeometry y="40" width="190" height="26" as="geometry"/>
                    &#xa;                    &#xa;                    &#xa;&#xa;&#xa;
                </mxCell>
                &#xa;                &#xa;                &#xa;&#xa;&#xa;
                <mxCell id="KtXMnVQGv9gxdhzujqgW-80" value="+ Operative: int" style="text;strokeColor=none;fillColor=none;align=left;verticalAlign=top;spacingLeft=4;spacingRight=4;overflow=hidden;rotatable=0;points=[[0,0.5],[1,0.5]];portConstraint=eastwest;" parent="KtXMnVQGv9gxdhzujqgW-79" vertex="1">
                    &#xa;                    &#xa;                    &#xa;&#xa;&#xa;
                    <mxGeometry y="66" width="190" height="26" as="geometry"/>
                    &#xa;                    &#xa;                    &#xa;&#xa;&#xa;
                </mxCell>
                &#xa;                &#xa;                &#xa;&#xa;&#xa;
                <mxCell id="KtXMnVQGv9gxdhzujqgW-81" value="+ MedicalSupplies: int" style="text;strokeColor=none;fillColor=none;align=left;verticalAlign=top;spacingLeft=4;spacingRight=4;overflow=hidden;rotatable=0;points=[[0,0.5],[1,0.5]];portConstraint=eastwest;" parent="KtXMnVQGv9gxdhzujqgW-79" vertex="1">
                    &#xa;                    &#xa;                    &#xa;&#xa;&#xa;
                    <mxGeometry y="92" width="190" height="26" as="geometry"/>
                    &#xa;                    &#xa;                    &#xa;&#xa;&#xa;
                </mxCell>
                &#xa;                &#xa;                &#xa;&#xa;&#xa;
                <mxCell id="KtXMnVQGv9gxdhzujqgW-82" value="+ Examine: int" style="text;strokeColor=none;fillColor=none;align=left;verticalAlign=top;spacingLeft=4;spacingRight=4;overflow=hidden;rotatable=0;points=[[0,0.5],[1,0.5]];portConstraint=eastwest;" parent="KtXMnVQGv9gxdhzujqgW-79" vertex="1">
                    &#xa;                    &#xa;                    &#xa;&#xa;&#xa;
                    <mxGeometry y="118" width="190" height="26" as="geometry"/>
                    &#xa;                    &#xa;                    &#xa;&#xa;&#xa;
                </mxCell>
                &#xa;                &#xa;                &#xa;&#xa;&#xa;
                <mxCell id="bdllxeHOkVTy2NuwYjfX-0" value="+ StayInHospital: int" style="text;strokeColor=none;fillColor=none;align=left;verticalAlign=top;spacingLeft=4;spacingRight=4;overflow=hidden;rotatable=0;points=[[0,0.5],[1,0.5]];portConstraint=eastwest;" vertex="1" parent="KtXMnVQGv9gxdhzujqgW-79">
                    &#xa;                    &#xa;                    &#xa;&#xa;&#xa;
                    <mxGeometry y="144" width="190" height="26" as="geometry"/>
                    &#xa;                    &#xa;                    &#xa;&#xa;&#xa;
                </mxCell>
                &#xa;                &#xa;                &#xa;&#xa;&#xa;
                <mxCell id="bdllxeHOkVTy2NuwYjfX-1" value="+ check: string" style="text;strokeColor=none;fillColor=none;align=left;verticalAlign=top;spacingLeft=4;spacingRight=4;overflow=hidden;rotatable=0;points=[[0,0.5],[1,0.5]];portConstraint=eastwest;" vertex="1" parent="KtXMnVQGv9gxdhzujqgW-79">
                    &#xa;                    &#xa;                    &#xa;&#xa;&#xa;
                    <mxGeometry y="170" width="190" height="26" as="geometry"/>
                    &#xa;                    &#xa;                    &#xa;&#xa;&#xa;
                </mxCell>
                &#xa;                &#xa;                &#xa;&#xa;&#xa;
                <mxCell id="Al3xBv8aZ7t-4XvISNPD-0" value="&lt;&lt;Entity&gt;&gt;&#10;Patientrecord" style="swimlane;fontStyle=0;childLayout=stackLayout;horizontal=1;startSize=30;fillColor=none;horizontalStack=0;resizeParent=1;resizeParentMax=0;resizeLast=0;collapsible=1;marginBottom=0;" parent="KtXMnVQGv9gxdhzujqgW-1" vertex="1">
                    &#xa;                    &#xa;                    &#xa;&#xa;&#xa;
                    <mxGeometry x="610" y="180" width="140" height="316" as="geometry">
                        &#xa;                        &#xa;                        &#xa;&#xa;&#xa;
                        <mxRectangle x="200" y="510" width="100" height="30" as="alternateBounds"/>
                        &#xa;                        &#xa;                        &#xa;&#xa;&#xa;
                    </mxGeometry>
                    &#xa;                    &#xa;                    &#xa;&#xa;&#xa;
                </mxCell>
                &#xa;                &#xa;                &#xa;&#xa;&#xa;
                <mxCell id="Al3xBv8aZ7t-4XvISNPD-1" value="+ id: int" style="text;strokeColor=none;fillColor=none;align=left;verticalAlign=top;spacingLeft=4;spacingRight=4;overflow=hidden;rotatable=0;points=[[0,0.5],[1,0.5]];portConstraint=eastwest;" parent="Al3xBv8aZ7t-4XvISNPD-0" vertex="1">
                    &#xa;                    &#xa;                    &#xa;&#xa;&#xa;
                    <mxGeometry y="30" width="140" height="26" as="geometry"/>
                    &#xa;                    &#xa;                    &#xa;&#xa;&#xa;
                </mxCell>
                &#xa;                &#xa;                &#xa;&#xa;&#xa;
                <mxCell id="Al3xBv8aZ7t-4XvISNPD-2" value="+ Name: string" style="text;strokeColor=none;fillColor=none;align=left;verticalAlign=top;spacingLeft=4;spacingRight=4;overflow=hidden;rotatable=0;points=[[0,0.5],[1,0.5]];portConstraint=eastwest;" parent="Al3xBv8aZ7t-4XvISNPD-0" vertex="1">
                    &#xa;                    &#xa;                    &#xa;&#xa;&#xa;
                    <mxGeometry y="56" width="140" height="26" as="geometry"/>
                    &#xa;                    &#xa;                    &#xa;&#xa;&#xa;
                </mxCell>
                &#xa;                &#xa;                &#xa;&#xa;&#xa;
                <mxCell id="Al3xBv8aZ7t-4XvISNPD-3" value="+ Idcardnumber: int" style="text;strokeColor=none;fillColor=none;align=left;verticalAlign=top;spacingLeft=4;spacingRight=4;overflow=hidden;rotatable=0;points=[[0,0.5],[1,0.5]];portConstraint=eastwest;" parent="Al3xBv8aZ7t-4XvISNPD-0" vertex="1">
                    &#xa;                    &#xa;                    &#xa;&#xa;&#xa;
                    <mxGeometry y="82" width="140" height="26" as="geometry"/>
                    &#xa;                    &#xa;                    &#xa;&#xa;&#xa;
                </mxCell>
                &#xa;                &#xa;                &#xa;&#xa;&#xa;
                <mxCell id="Al3xBv8aZ7t-4XvISNPD-4" value="+ Age: int" style="text;strokeColor=none;fillColor=none;align=left;verticalAlign=top;spacingLeft=4;spacingRight=4;overflow=hidden;rotatable=0;points=[[0,0.5],[1,0.5]];portConstraint=eastwest;" parent="Al3xBv8aZ7t-4XvISNPD-0" vertex="1">
                    &#xa;                    &#xa;                    &#xa;&#xa;&#xa;
                    <mxGeometry y="108" width="140" height="26" as="geometry"/>
                    &#xa;                    &#xa;                    &#xa;&#xa;&#xa;
                </mxCell>
                &#xa;                &#xa;                &#xa;&#xa;&#xa;
                <mxCell id="Al3xBv8aZ7t-4XvISNPD-5" value="+ Bloodtype: string" style="text;strokeColor=none;fillColor=none;align=left;verticalAlign=top;spacingLeft=4;spacingRight=4;overflow=hidden;rotatable=0;points=[[0,0.5],[1,0.5]];portConstraint=eastwest;" parent="Al3xBv8aZ7t-4XvISNPD-0" vertex="1">
                    &#xa;                    &#xa;                    &#xa;&#xa;&#xa;
                    <mxGeometry y="134" width="140" height="26" as="geometry"/>
                    &#xa;                    &#xa;                    &#xa;&#xa;&#xa;
                </mxCell>
                &#xa;                &#xa;                &#xa;&#xa;&#xa;
                <mxCell id="Al3xBv8aZ7t-4XvISNPD-6" value="+ Disease: string" style="text;strokeColor=none;fillColor=none;align=left;verticalAlign=top;spacingLeft=4;spacingRight=4;overflow=hidden;rotatable=0;points=[[0,0.5],[1,0.5]];portConstraint=eastwest;" parent="Al3xBv8aZ7t-4XvISNPD-0" vertex="1">
                    &#xa;                    &#xa;                    &#xa;&#xa;&#xa;
                    <mxGeometry y="160" width="140" height="26" as="geometry"/>
                    &#xa;                    &#xa;                    &#xa;&#xa;&#xa;
                </mxCell>
                &#xa;                &#xa;                &#xa;&#xa;&#xa;
                <mxCell id="Al3xBv8aZ7t-4XvISNPD-7" value="+ Allergic: string" style="text;strokeColor=none;fillColor=none;align=left;verticalAlign=top;spacingLeft=4;spacingRight=4;overflow=hidden;rotatable=0;points=[[0,0.5],[1,0.5]];portConstraint=eastwest;" parent="Al3xBv8aZ7t-4XvISNPD-0" vertex="1">
                    &#xa;                    &#xa;                    &#xa;&#xa;&#xa;
                    <mxGeometry y="186" width="140" height="26" as="geometry"/>
                    &#xa;                    &#xa;                    &#xa;&#xa;&#xa;
                </mxCell>
                &#xa;                &#xa;                &#xa;&#xa;&#xa;
                <mxCell id="Al3xBv8aZ7t-4XvISNPD-8" value="+ Phonenumber: string" style="text;strokeColor=none;fillColor=none;align=left;verticalAlign=top;spacingLeft=4;spacingRight=4;overflow=hidden;rotatable=0;points=[[0,0.5],[1,0.5]];portConstraint=eastwest;" parent="Al3xBv8aZ7t-4XvISNPD-0" vertex="1">
                    &#xa;                    &#xa;                    &#xa;&#xa;&#xa;
                    <mxGeometry y="212" width="140" height="26" as="geometry"/>
                    &#xa;                    &#xa;                    &#xa;&#xa;&#xa;
                </mxCell>
                &#xa;                &#xa;                &#xa;&#xa;&#xa;
                <mxCell id="Al3xBv8aZ7t-4XvISNPD-9" value="+ Email: string" style="text;strokeColor=none;fillColor=none;align=left;verticalAlign=top;spacingLeft=4;spacingRight=4;overflow=hidden;rotatable=0;points=[[0,0.5],[1,0.5]];portConstraint=eastwest;" parent="Al3xBv8aZ7t-4XvISNPD-0" vertex="1">
                    &#xa;                    &#xa;                    &#xa;&#xa;&#xa;
                    <mxGeometry y="238" width="140" height="26" as="geometry"/>
                    &#xa;                    &#xa;                    &#xa;&#xa;&#xa;
                </mxCell>
                &#xa;                &#xa;                &#xa;&#xa;&#xa;
                <mxCell id="Al3xBv8aZ7t-4XvISNPD-10" value="+ Home: string" style="text;strokeColor=none;fillColor=none;align=left;verticalAlign=top;spacingLeft=4;spacingRight=4;overflow=hidden;rotatable=0;points=[[0,0.5],[1,0.5]];portConstraint=eastwest;" parent="Al3xBv8aZ7t-4XvISNPD-0" vertex="1">
                    &#xa;                    &#xa;                    &#xa;&#xa;&#xa;
                    <mxGeometry y="264" width="140" height="26" as="geometry"/>
                    &#xa;                    &#xa;                    &#xa;&#xa;&#xa;
                </mxCell>
                &#xa;                &#xa;                &#xa;&#xa;&#xa;
                <mxCell id="Al3xBv8aZ7t-4XvISNPD-11" value="+ Date: time" style="text;strokeColor=none;fillColor=none;align=left;verticalAlign=top;spacingLeft=4;spacingRight=4;overflow=hidden;rotatable=0;points=[[0,0.5],[1,0.5]];portConstraint=eastwest;" parent="Al3xBv8aZ7t-4XvISNPD-0" vertex="1">
                    &#xa;                    &#xa;                    &#xa;&#xa;&#xa;
                    <mxGeometry y="290" width="140" height="26" as="geometry"/>
                    &#xa;                    &#xa;                    &#xa;&#xa;&#xa;
                </mxCell>
                &#xa;                &#xa;                &#xa;&#xa;&#xa;
                <mxCell id="Al3xBv8aZ7t-4XvISNPD-12" value="&lt;&lt;Entity&gt;&gt;&#10;Prename" style="swimlane;fontStyle=0;childLayout=stackLayout;horizontal=1;startSize=30;fillColor=none;horizontalStack=0;resizeParent=1;resizeParentMax=0;resizeLast=0;collapsible=1;marginBottom=0;" parent="KtXMnVQGv9gxdhzujqgW-1" vertex="1">
                    &#xa;                    &#xa;                    &#xa;&#xa;&#xa;
                    <mxGeometry x="840" y="180" width="140" height="82" as="geometry"/>
                    &#xa;                    &#xa;                    &#xa;&#xa;&#xa;
                </mxCell>
                &#xa;                &#xa;                &#xa;&#xa;&#xa;
                <mxCell id="Al3xBv8aZ7t-4XvISNPD-13" value="+ id: int" style="text;strokeColor=none;fillColor=none;align=left;verticalAlign=top;spacingLeft=4;spacingRight=4;overflow=hidden;rotatable=0;points=[[0,0.5],[1,0.5]];portConstraint=eastwest;" parent="Al3xBv8aZ7t-4XvISNPD-12" vertex="1">
                    &#xa;                    &#xa;                    &#xa;&#xa;&#xa;
                    <mxGeometry y="30" width="140" height="26" as="geometry"/>
                    &#xa;                    &#xa;                    &#xa;&#xa;&#xa;
                </mxCell>
                &#xa;                &#xa;                &#xa;&#xa;&#xa;
                <mxCell id="Al3xBv8aZ7t-4XvISNPD-14" value="+ prefix: string" style="text;strokeColor=none;fillColor=none;align=left;verticalAlign=top;spacingLeft=4;spacingRight=4;overflow=hidden;rotatable=0;points=[[0,0.5],[1,0.5]];portConstraint=eastwest;" parent="Al3xBv8aZ7t-4XvISNPD-12" vertex="1">
                    &#xa;                    &#xa;                    &#xa;&#xa;&#xa;
                    <mxGeometry y="56" width="140" height="26" as="geometry"/>
                    &#xa;                    &#xa;                    &#xa;&#xa;&#xa;
                </mxCell>
                &#xa;                &#xa;                &#xa;&#xa;&#xa;
                <mxCell id="Al3xBv8aZ7t-4XvISNPD-15" value="&lt;&lt;Entity&gt;&gt;&#10;Gender" style="swimlane;fontStyle=0;childLayout=stackLayout;horizontal=1;startSize=30;fillColor=none;horizontalStack=0;resizeParent=1;resizeParentMax=0;resizeLast=0;collapsible=1;marginBottom=0;" parent="KtXMnVQGv9gxdhzujqgW-1" vertex="1">
                    &#xa;                    &#xa;                    &#xa;&#xa;&#xa;
                    <mxGeometry x="847" y="414" width="140" height="82" as="geometry"/>
                    &#xa;                    &#xa;                    &#xa;&#xa;&#xa;
                </mxCell>
                &#xa;                &#xa;                &#xa;&#xa;&#xa;
                <mxCell id="Al3xBv8aZ7t-4XvISNPD-16" value="+ id: int" style="text;strokeColor=none;fillColor=none;align=left;verticalAlign=top;spacingLeft=4;spacingRight=4;overflow=hidden;rotatable=0;points=[[0,0.5],[1,0.5]];portConstraint=eastwest;" parent="Al3xBv8aZ7t-4XvISNPD-15" vertex="1">
                    &#xa;                    &#xa;                    &#xa;&#xa;&#xa;
                    <mxGeometry y="30" width="140" height="26" as="geometry"/>
                    &#xa;                    &#xa;                    &#xa;&#xa;&#xa;
                </mxCell>
                &#xa;                &#xa;                &#xa;&#xa;&#xa;
                <mxCell id="Al3xBv8aZ7t-4XvISNPD-17" value="+ Genderstatus: string" style="text;strokeColor=none;fillColor=none;align=left;verticalAlign=top;spacingLeft=4;spacingRight=4;overflow=hidden;rotatable=0;points=[[0,0.5],[1,0.5]];portConstraint=eastwest;" parent="Al3xBv8aZ7t-4XvISNPD-15" vertex="1">
                    &#xa;                    &#xa;                    &#xa;&#xa;&#xa;
                    <mxGeometry y="56" width="140" height="26" as="geometry"/>
                    &#xa;                    &#xa;                    &#xa;&#xa;&#xa;
                </mxCell>
                &#xa;                &#xa;                &#xa;&#xa;&#xa;
                <mxCell id="Al3xBv8aZ7t-4XvISNPD-18" value="&lt;&lt;Entity&gt;&gt;&#10;Medicalrecordstaff" style="swimlane;fontStyle=0;childLayout=stackLayout;horizontal=1;startSize=30;fillColor=none;horizontalStack=0;resizeParent=1;resizeParentMax=0;resizeLast=0;collapsible=1;marginBottom=0;" parent="KtXMnVQGv9gxdhzujqgW-1" vertex="1">
                    &#xa;                    &#xa;                    &#xa;&#xa;&#xa;
                    <mxGeometry x="610" y="635.9" width="140" height="82" as="geometry"/>
                    &#xa;                    &#xa;                    &#xa;&#xa;&#xa;
                </mxCell>
                &#xa;                &#xa;                &#xa;&#xa;&#xa;
                <mxCell id="Al3xBv8aZ7t-4XvISNPD-19" value="+ id: int" style="text;strokeColor=none;fillColor=none;align=left;verticalAlign=top;spacingLeft=4;spacingRight=4;overflow=hidden;rotatable=0;points=[[0,0.5],[1,0.5]];portConstraint=eastwest;" parent="Al3xBv8aZ7t-4XvISNPD-18" vertex="1">
                    &#xa;                    &#xa;                    &#xa;&#xa;&#xa;
                    <mxGeometry y="30" width="140" height="26" as="geometry"/>
                    &#xa;                    &#xa;                    &#xa;&#xa;&#xa;
                </mxCell>
                &#xa;                &#xa;                &#xa;&#xa;&#xa;
                <mxCell id="Al3xBv8aZ7t-4XvISNPD-20" value="+ Name: string" style="text;strokeColor=none;fillColor=none;align=left;verticalAlign=top;spacingLeft=4;spacingRight=4;overflow=hidden;rotatable=0;points=[[0,0.5],[1,0.5]];portConstraint=eastwest;" parent="Al3xBv8aZ7t-4XvISNPD-18" vertex="1">
                    &#xa;                    &#xa;                    &#xa;&#xa;&#xa;
                    <mxGeometry y="56" width="140" height="26" as="geometry"/>
                    &#xa;                    &#xa;                    &#xa;&#xa;&#xa;
                </mxCell>
                &#xa;                &#xa;                &#xa;&#xa;&#xa;
                <mxCell id="Al3xBv8aZ7t-4XvISNPD-21" style="edgeStyle=none;rounded=0;orthogonalLoop=1;jettySize=auto;html=1;entryX=0;entryY=0.5;entryDx=0;entryDy=0;endArrow=none;endFill=0;fontColor=#000000;startArrow=diamondThin;startFill=0;startSize=25;exitX=1.009;exitY=0.238;exitDx=0;exitDy=0;exitPerimeter=0;" parent="KtXMnVQGv9gxdhzujqgW-1" source="Al3xBv8aZ7t-4XvISNPD-5" target="Al3xBv8aZ7t-4XvISNPD-13" edge="1">
                    &#xa;                    &#xa;                    &#xa;&#xa;&#xa;
                    <mxGeometry relative="1" as="geometry">
                        &#xa;                        &#xa;                        &#xa;&#xa;&#xa;
                        <mxPoint x="750" y="301" as="sourcePoint"/>
                        &#xa;                        &#xa;                        &#xa;&#xa;&#xa;
                    </mxGeometry>
                    &#xa;                    &#xa;                    &#xa;&#xa;&#xa;
                </mxCell>
                &#xa;                &#xa;                &#xa;&#xa;&#xa;
                <mxCell id="Al3xBv8aZ7t-4XvISNPD-22" value="1" style="edgeLabel;html=1;align=center;verticalAlign=middle;resizable=0;points=[];fontColor=#000000;" parent="Al3xBv8aZ7t-4XvISNPD-21" vertex="1" connectable="0">
                    &#xa;                    &#xa;                    &#xa;&#xa;&#xa;
                    <mxGeometry x="0.8264" y="2" relative="1" as="geometry">
                        &#xa;                        &#xa;                        &#xa;&#xa;&#xa;
                        <mxPoint x="-3.71" y="-19.58" as="offset"/>
                        &#xa;                        &#xa;                        &#xa;&#xa;&#xa;
                    </mxGeometry>
                    &#xa;                    &#xa;                    &#xa;&#xa;&#xa;
                </mxCell>
                &#xa;                &#xa;                &#xa;&#xa;&#xa;
                <mxCell id="Al3xBv8aZ7t-4XvISNPD-23" value="0..*" style="edgeLabel;html=1;align=center;verticalAlign=middle;resizable=0;points=[];fontColor=#000000;" parent="Al3xBv8aZ7t-4XvISNPD-21" vertex="1" connectable="0">
                    &#xa;                    &#xa;                    &#xa;&#xa;&#xa;
                    <mxGeometry x="-0.5872" y="-3" relative="1" as="geometry">
                        &#xa;                        &#xa;                        &#xa;&#xa;&#xa;
                        <mxPoint x="-9.59" y="-12.76" as="offset"/>
                        &#xa;                        &#xa;                        &#xa;&#xa;&#xa;
                    </mxGeometry>
                    &#xa;                    &#xa;                    &#xa;&#xa;&#xa;
                </mxCell>
                &#xa;                &#xa;                &#xa;&#xa;&#xa;
                <mxCell id="Al3xBv8aZ7t-4XvISNPD-24" style="edgeStyle=none;rounded=0;orthogonalLoop=1;jettySize=auto;html=1;entryX=0;entryY=0.5;entryDx=0;entryDy=0;endArrow=none;endFill=0;fontColor=#000000;startArrow=diamondThin;startFill=0;startSize=25;" parent="KtXMnVQGv9gxdhzujqgW-1" target="Al3xBv8aZ7t-4XvISNPD-16" edge="1">
                    &#xa;                    &#xa;                    &#xa;&#xa;&#xa;
                    <mxGeometry relative="1" as="geometry">
                        &#xa;                        &#xa;                        &#xa;&#xa;&#xa;
                        <mxPoint x="751" y="333" as="sourcePoint"/>
                        &#xa;                        &#xa;                        &#xa;&#xa;&#xa;
                    </mxGeometry>
                    &#xa;                    &#xa;                    &#xa;&#xa;&#xa;
                </mxCell>
                &#xa;                &#xa;                &#xa;&#xa;&#xa;
                <mxCell id="Al3xBv8aZ7t-4XvISNPD-25" value="1" style="edgeLabel;html=1;align=center;verticalAlign=middle;resizable=0;points=[];fontColor=#000000;" parent="Al3xBv8aZ7t-4XvISNPD-24" vertex="1" connectable="0">
                    &#xa;                    &#xa;                    &#xa;&#xa;&#xa;
                    <mxGeometry x="0.895" y="1" relative="1" as="geometry">
                        &#xa;                        &#xa;                        &#xa;&#xa;&#xa;
                        <mxPoint x="-11" y="-30.21" as="offset"/>
                        &#xa;                        &#xa;                        &#xa;&#xa;&#xa;
                    </mxGeometry>
                    &#xa;                    &#xa;                    &#xa;&#xa;&#xa;
                </mxCell>
                &#xa;                &#xa;                &#xa;&#xa;&#xa;
                <mxCell id="Al3xBv8aZ7t-4XvISNPD-26" value="0..*" style="edgeLabel;html=1;align=center;verticalAlign=middle;resizable=0;points=[];fontColor=#000000;" parent="Al3xBv8aZ7t-4XvISNPD-24" vertex="1" connectable="0">
                    &#xa;                    &#xa;                    &#xa;&#xa;&#xa;
                    <mxGeometry x="-0.5464" y="4" relative="1" as="geometry">
                        &#xa;                        &#xa;                        &#xa;&#xa;&#xa;
                        <mxPoint x="13.8" y="-9" as="offset"/>
                        &#xa;                        &#xa;                        &#xa;&#xa;&#xa;
                    </mxGeometry>
                    &#xa;                    &#xa;                    &#xa;&#xa;&#xa;
                </mxCell>
                &#xa;                &#xa;                &#xa;&#xa;&#xa;
                <mxCell id="Al3xBv8aZ7t-4XvISNPD-27" style="edgeStyle=none;rounded=0;orthogonalLoop=1;jettySize=auto;html=1;entryX=0.5;entryY=0;entryDx=0;entryDy=0;endArrow=none;endFill=0;fontColor=#000000;startArrow=diamondThin;startFill=0;targetPerimeterSpacing=6;startSize=25;exitX=0.562;exitY=1.005;exitDx=0;exitDy=0;exitPerimeter=0;" parent="KtXMnVQGv9gxdhzujqgW-1" source="KtXMnVQGv9gxdhzujqgW-78" target="Al3xBv8aZ7t-4XvISNPD-18" edge="1">
                    &#xa;                    &#xa;                    &#xa;&#xa;&#xa;
                    <mxGeometry relative="1" as="geometry">
                        &#xa;                        &#xa;                        &#xa;&#xa;&#xa;
                        <mxPoint x="333.00000000000006" y="399.99800000000005" as="sourcePoint"/>
                        &#xa;                        &#xa;                        &#xa;&#xa;&#xa;
                    </mxGeometry>
                    &#xa;                    &#xa;                    &#xa;&#xa;&#xa;
                </mxCell>
                &#xa;                &#xa;                &#xa;&#xa;&#xa;
                <mxCell id="Al3xBv8aZ7t-4XvISNPD-28" value="1" style="edgeLabel;html=1;align=center;verticalAlign=middle;resizable=0;points=[];fontColor=#000000;" parent="Al3xBv8aZ7t-4XvISNPD-27" vertex="1" connectable="0">
                    &#xa;                    &#xa;                    &#xa;&#xa;&#xa;
                    <mxGeometry x="0.7333" y="-1" relative="1" as="geometry">
                        &#xa;                        &#xa;                        &#xa;&#xa;&#xa;
                        <mxPoint x="23.88" y="-3.450000000000001" as="offset"/>
                        &#xa;                        &#xa;                        &#xa;&#xa;&#xa;
                    </mxGeometry>
                    &#xa;                    &#xa;                    &#xa;&#xa;&#xa;
                </mxCell>
                &#xa;                &#xa;                &#xa;&#xa;&#xa;
                <mxCell id="Al3xBv8aZ7t-4XvISNPD-29" value="0..*" style="edgeLabel;html=1;align=center;verticalAlign=middle;resizable=0;points=[];fontColor=#000000;" parent="Al3xBv8aZ7t-4XvISNPD-27" vertex="1" connectable="0">
                    &#xa;                    &#xa;                    &#xa;&#xa;&#xa;
                    <mxGeometry x="-0.5511" y="-2" relative="1" as="geometry">
                        &#xa;                        &#xa;                        &#xa;&#xa;&#xa;
                        <mxPoint x="-25.79" y="-47.94" as="offset"/>
                        &#xa;                        &#xa;                        &#xa;&#xa;&#xa;
                    </mxGeometry>
                    &#xa;                    &#xa;                    &#xa;&#xa;&#xa;
                </mxCell>
                &#xa;                &#xa;                &#xa;&#xa;&#xa;
                <mxCell id="Al3xBv8aZ7t-4XvISNPD-30" value="" style="endArrow=diamondThin;html=1;strokeColor=#330000;endFill=0;endSize=25;exitX=1;exitY=0.5;exitDx=0;exitDy=0;entryX=0;entryY=0.5;entryDx=0;entryDy=0;" parent="KtXMnVQGv9gxdhzujqgW-1" source="KtXMnVQGv9gxdhzujqgW-80" target="KtXMnVQGv9gxdhzujqgW-77" edge="1">
                    &#xa;                    &#xa;                    &#xa;&#xa;&#xa;
                    <mxGeometry width="50" height="50" relative="1" as="geometry">
                        &#xa;                        &#xa;                        &#xa;&#xa;&#xa;
                        <mxPoint x="-353.57000000000016" y="518.3119027403941" as="sourcePoint"/>
                        &#xa;                        &#xa;                        &#xa;&#xa;&#xa;
                        <mxPoint x="-170" y="450" as="targetPoint"/>
                        &#xa;                        &#xa;                        &#xa;&#xa;&#xa;
                    </mxGeometry>
                    &#xa;                    &#xa;                    &#xa;&#xa;&#xa;
                </mxCell>
                &#xa;                &#xa;                &#xa;&#xa;&#xa;
                <mxCell id="Al3xBv8aZ7t-4XvISNPD-31" value="1" style="edgeLabel;html=1;align=center;verticalAlign=middle;resizable=0;points=[];fontSize=12;" parent="Al3xBv8aZ7t-4XvISNPD-30" vertex="1" connectable="0">
                    &#xa;                    &#xa;                    &#xa;&#xa;&#xa;
                    <mxGeometry x="-0.8143" relative="1" as="geometry">
                        &#xa;                        &#xa;                        &#xa;&#xa;&#xa;
                        <mxPoint x="20" y="9.31" as="offset"/>
                        &#xa;                        &#xa;                        &#xa;&#xa;&#xa;
                    </mxGeometry>
                    &#xa;                    &#xa;                    &#xa;&#xa;&#xa;
                </mxCell>
                &#xa;                &#xa;                &#xa;&#xa;&#xa;
                <mxCell id="Al3xBv8aZ7t-4XvISNPD-32" value="0..*" style="edgeLabel;html=1;align=center;verticalAlign=middle;resizable=0;points=[];fontSize=12;" parent="Al3xBv8aZ7t-4XvISNPD-30" vertex="1" connectable="0">
                    &#xa;                    &#xa;                    &#xa;&#xa;&#xa;
                    <mxGeometry x="0.5559" y="2" relative="1" as="geometry">
                        &#xa;                        &#xa;                        &#xa;&#xa;&#xa;
                        <mxPoint x="21.93" y="-17.35" as="offset"/>
                        &#xa;                        &#xa;                        &#xa;&#xa;&#xa;
                    </mxGeometry>
                    &#xa;                    &#xa;                    &#xa;&#xa;&#xa;
                </mxCell>
                &#xa;                &#xa;                &#xa;&#xa;&#xa;
                <mxCell id="Al3xBv8aZ7t-4XvISNPD-33" value="" style="endArrow=diamondThin;html=1;strokeColor=#330000;entryX=1;entryY=0.5;entryDx=0;entryDy=0;endFill=0;endSize=25;exitX=0;exitY=0.5;exitDx=0;exitDy=0;" parent="KtXMnVQGv9gxdhzujqgW-1" source="Al3xBv8aZ7t-4XvISNPD-6" target="KtXMnVQGv9gxdhzujqgW-70" edge="1">
                    &#xa;                    &#xa;                    &#xa;&#xa;&#xa;
                    <mxGeometry width="50" height="50" relative="1" as="geometry">
                        &#xa;                        &#xa;                        &#xa;&#xa;&#xa;
                        <mxPoint x="369.99999999999983" y="400.0019027403941" as="sourcePoint"/>
                        &#xa;                        &#xa;                        &#xa;&#xa;&#xa;
                        <mxPoint x="553.5699999999999" y="331.69" as="targetPoint"/>
                        &#xa;                        &#xa;                        &#xa;&#xa;&#xa;
                    </mxGeometry>
                    &#xa;                    &#xa;                    &#xa;&#xa;&#xa;
                </mxCell>
                &#xa;                &#xa;                &#xa;&#xa;&#xa;
                <mxCell id="Al3xBv8aZ7t-4XvISNPD-34" value="1" style="edgeLabel;html=1;align=center;verticalAlign=middle;resizable=0;points=[];fontSize=12;" parent="Al3xBv8aZ7t-4XvISNPD-33" vertex="1" connectable="0">
                    &#xa;                    &#xa;                    &#xa;&#xa;&#xa;
                    <mxGeometry x="-0.8143" relative="1" as="geometry">
                        &#xa;                        &#xa;                        &#xa;&#xa;&#xa;
                        <mxPoint y="-11" as="offset"/>
                        &#xa;                        &#xa;                        &#xa;&#xa;&#xa;
                    </mxGeometry>
                    &#xa;                    &#xa;                    &#xa;&#xa;&#xa;
                </mxCell>
                &#xa;                &#xa;                &#xa;&#xa;&#xa;
                <mxCell id="Al3xBv8aZ7t-4XvISNPD-35" value="0..*" style="edgeLabel;html=1;align=center;verticalAlign=middle;resizable=0;points=[];fontSize=12;" parent="Al3xBv8aZ7t-4XvISNPD-33" vertex="1" connectable="0">
                    &#xa;                    &#xa;                    &#xa;&#xa;&#xa;
                    <mxGeometry x="0.5559" y="2" relative="1" as="geometry">
                        &#xa;                        &#xa;                        &#xa;&#xa;&#xa;
                        <mxPoint x="2.960000000000001" y="-32.64" as="offset"/>
                        &#xa;                        &#xa;                        &#xa;&#xa;&#xa;
                    </mxGeometry>
                    &#xa;                    &#xa;                    &#xa;&#xa;&#xa;
                </mxCell>
                &#xa;                &#xa;                &#xa;&#xa;&#xa;
                <mxCell id="Al3xBv8aZ7t-4XvISNPD-36" value="" style="endArrow=diamondThin;html=1;strokeColor=#330000;endFill=0;endSize=25;exitX=0.5;exitY=0;exitDx=0;exitDy=0;" parent="KtXMnVQGv9gxdhzujqgW-1" source="Al3xBv8aZ7t-4XvISNPD-18" target="Al3xBv8aZ7t-4XvISNPD-11" edge="1">
                    &#xa;                    &#xa;                    &#xa;&#xa;&#xa;
                    <mxGeometry width="50" height="50" relative="1" as="geometry">
                        &#xa;                        &#xa;                        &#xa;&#xa;&#xa;
                        <mxPoint x="399.99999999999983" y="450.0019027403941" as="sourcePoint"/>
                        &#xa;                        &#xa;                        &#xa;&#xa;&#xa;
                        <mxPoint x="583.5699999999999" y="381.69" as="targetPoint"/>
                        &#xa;                        &#xa;                        &#xa;&#xa;&#xa;
                    </mxGeometry>
                    &#xa;                    &#xa;                    &#xa;&#xa;&#xa;
                </mxCell>
                &#xa;                &#xa;                &#xa;&#xa;&#xa;
                <mxCell id="Al3xBv8aZ7t-4XvISNPD-37" value="1" style="edgeLabel;html=1;align=center;verticalAlign=middle;resizable=0;points=[];fontSize=12;" parent="Al3xBv8aZ7t-4XvISNPD-36" vertex="1" connectable="0">
                    &#xa;                    &#xa;                    &#xa;&#xa;&#xa;
                    <mxGeometry x="-0.8143" relative="1" as="geometry">
                        &#xa;                        &#xa;                        &#xa;&#xa;&#xa;
                        <mxPoint x="24.66" y="-4.02" as="offset"/>
                        &#xa;                        &#xa;                        &#xa;&#xa;&#xa;
                    </mxGeometry>
                    &#xa;                    &#xa;                    &#xa;&#xa;&#xa;
                </mxCell>
                &#xa;                &#xa;                &#xa;&#xa;&#xa;
                <mxCell id="Al3xBv8aZ7t-4XvISNPD-38" value="0..*" style="edgeLabel;html=1;align=center;verticalAlign=middle;resizable=0;points=[];fontSize=12;" parent="Al3xBv8aZ7t-4XvISNPD-36" vertex="1" connectable="0">
                    &#xa;                    &#xa;                    &#xa;&#xa;&#xa;
                    <mxGeometry x="0.5559" y="2" relative="1" as="geometry">
                        &#xa;                        &#xa;                        &#xa;&#xa;&#xa;
                        <mxPoint x="22" y="13.100000000000001" as="offset"/>
                        &#xa;                        &#xa;                        &#xa;&#xa;&#xa;
                    </mxGeometry>
                    &#xa;                    &#xa;                    &#xa;&#xa;&#xa;
                </mxCell>
                &#xa;                &#xa;                &#xa;&#xa;&#xa;
            </root>
            &#xa;            &#xa;            &#xa;&#xa;&#xa;
        </mxGraphModel>
        &#xa;
    </diagram>
    <diagram id="bKuJ9HDTIBWNmMeNKlTZ" name="System Activity Diagram">
        &#xa;
        <mxGraphModel dx="990" dy="575" grid="1" gridSize="10" guides="1" tooltips="1" connect="1" arrows="1" fold="1" page="1" pageScale="1" pageWidth="827" pageHeight="1169" math="0" shadow="0">
            &#xa;            &#xa;&#xa;
            <root>
                &#xa;                &#xa;&#xa;
                <mxCell id="Hbqb-1Qobj14XvleTHor-0"/>
                &#xa;                &#xa;&#xa;
                <mxCell id="Hbqb-1Qobj14XvleTHor-1" parent="Hbqb-1Qobj14XvleTHor-0"/>
                &#xa;                &#xa;&#xa;
                <mxCell id="Hbqb-1Qobj14XvleTHor-2" value="ระบบย่อย ระบบค้นหาสิทธิ์ผู้ป่วย" style="shape=umlFrame;whiteSpace=wrap;html=1;width=201;height=20;" parent="Hbqb-1Qobj14XvleTHor-1" vertex="1">
                    &#xa;                    &#xa;&#xa;
                    <mxGeometry x="39" y="40" width="761" height="1120" as="geometry"/>
                    &#xa;                    &#xa;&#xa;
                </mxCell>
                &#xa;                &#xa;&#xa;
                <mxCell id="Hbqb-1Qobj14XvleTHor-3" value="" style="shape=table;html=1;whiteSpace=wrap;startSize=0;container=1;collapsible=0;childLayout=tableLayout;" parent="Hbqb-1Qobj14XvleTHor-1" vertex="1">
                    &#xa;                    &#xa;&#xa;
                    <mxGeometry x="80" y="80" width="680" height="1040" as="geometry"/>
                    &#xa;                    &#xa;&#xa;
                </mxCell>
                &#xa;                &#xa;&#xa;
                <mxCell id="Hbqb-1Qobj14XvleTHor-4" value="" style="shape=partialRectangle;html=1;whiteSpace=wrap;collapsible=0;dropTarget=0;pointerEvents=0;fillColor=none;top=0;left=0;bottom=0;right=0;points=[[0,0.5],[1,0.5]];portConstraint=eastwest;" parent="Hbqb-1Qobj14XvleTHor-3" vertex="1">
                    &#xa;                    &#xa;&#xa;
                    <mxGeometry width="680" height="48" as="geometry"/>
                    &#xa;                    &#xa;&#xa;
                </mxCell>
                &#xa;                &#xa;&#xa;
                <mxCell id="Hbqb-1Qobj14XvleTHor-5" value="&lt;span style=&quot;font-family: &amp;#34;th sarabunpsk&amp;#34; , sans-serif&quot;&gt;พนักงานเวชระเบียน&lt;/span&gt;" style="shape=partialRectangle;html=1;whiteSpace=wrap;connectable=0;overflow=hidden;fillColor=none;top=0;left=0;bottom=0;right=0;" parent="Hbqb-1Qobj14XvleTHor-4" vertex="1">
                    &#xa;                    &#xa;&#xa;
                    <mxGeometry width="270" height="48" as="geometry"/>
                    &#xa;                    &#xa;&#xa;
                </mxCell>
                &#xa;                &#xa;&#xa;
                <mxCell id="Hbqb-1Qobj14XvleTHor-6" value="ระบบ" style="shape=partialRectangle;html=1;whiteSpace=wrap;connectable=0;overflow=hidden;fillColor=none;top=0;left=0;bottom=0;right=0;" parent="Hbqb-1Qobj14XvleTHor-4" vertex="1">
                    &#xa;                    &#xa;&#xa;
                    <mxGeometry x="270" width="410" height="48" as="geometry"/>
                    &#xa;                    &#xa;&#xa;
                </mxCell>
                &#xa;                &#xa;&#xa;
                <mxCell id="Hbqb-1Qobj14XvleTHor-7" value="" style="shape=partialRectangle;html=1;whiteSpace=wrap;collapsible=0;dropTarget=0;pointerEvents=0;fillColor=none;top=0;left=0;bottom=0;right=0;points=[[0,0.5],[1,0.5]];portConstraint=eastwest;" parent="Hbqb-1Qobj14XvleTHor-3" vertex="1">
                    &#xa;                    &#xa;&#xa;
                    <mxGeometry y="48" width="680" height="992" as="geometry"/>
                    &#xa;                    &#xa;&#xa;
                </mxCell>
                &#xa;                &#xa;&#xa;
                <mxCell id="Hbqb-1Qobj14XvleTHor-8" value="" style="shape=partialRectangle;html=1;whiteSpace=wrap;connectable=0;overflow=hidden;fillColor=none;top=0;left=0;bottom=0;right=0;" parent="Hbqb-1Qobj14XvleTHor-7" vertex="1">
                    &#xa;                    &#xa;&#xa;
                    <mxGeometry width="270" height="992" as="geometry"/>
                    &#xa;                    &#xa;&#xa;
                </mxCell>
                &#xa;                &#xa;&#xa;
                <mxCell id="Hbqb-1Qobj14XvleTHor-9" value="" style="shape=partialRectangle;html=1;whiteSpace=wrap;connectable=0;overflow=hidden;fillColor=none;top=0;left=0;bottom=0;right=0;" parent="Hbqb-1Qobj14XvleTHor-7" vertex="1">
                    &#xa;                    &#xa;&#xa;
                    <mxGeometry x="270" width="410" height="992" as="geometry"/>
                    &#xa;                    &#xa;&#xa;
                </mxCell>
                &#xa;                &#xa;&#xa;
                <mxCell id="Hbqb-1Qobj14XvleTHor-10" value="&lt;font style=&quot;vertical-align: inherit&quot;&gt;&lt;font style=&quot;vertical-align: inherit&quot;&gt;เปิดหน้าจอ&lt;/font&gt;&lt;/font&gt;" style="rounded=1;whiteSpace=wrap;html=1;arcSize=40;fontColor=#000000;fillColor=#ffffc0;strokeColor=#ff0000;" parent="Hbqb-1Qobj14XvleTHor-1" vertex="1">
                    &#xa;                    &#xa;&#xa;
                    <mxGeometry x="150" y="210" width="120" height="40" as="geometry"/>
                    &#xa;                    &#xa;&#xa;
                </mxCell>
                &#xa;                &#xa;&#xa;
                <mxCell id="Hbqb-1Qobj14XvleTHor-11" value="" style="edgeStyle=orthogonalEdgeStyle;html=1;verticalAlign=bottom;endArrow=open;endSize=8;strokeColor=#ff0000;entryX=0;entryY=0.5;entryDx=0;entryDy=0;" parent="Hbqb-1Qobj14XvleTHor-1" source="Hbqb-1Qobj14XvleTHor-10" target="Ff7vZJIO7-Za2Zly2yPD-0" edge="1">
                    &#xa;                    &#xa;&#xa;
                    <mxGeometry relative="1" as="geometry">
                        &#xa;                        &#xa;&#xa;
                        <mxPoint x="539" y="230" as="targetPoint"/>
                        &#xa;                        &#xa;&#xa;
                    </mxGeometry>
                    &#xa;                    &#xa;&#xa;
                </mxCell>
                &#xa;                &#xa;&#xa;
                <mxCell id="Hbqb-1Qobj14XvleTHor-17" value="แสดงหน้าจอ" style="rounded=1;whiteSpace=wrap;html=1;arcSize=40;fontColor=#000000;fillColor=#ffffc0;strokeColor=#ff0000;" parent="Hbqb-1Qobj14XvleTHor-1" vertex="1">
                    &#xa;                    &#xa;&#xa;
                    <mxGeometry x="538.5" y="650" width="120" height="40" as="geometry"/>
                    &#xa;                    &#xa;&#xa;
                </mxCell>
                &#xa;                &#xa;&#xa;
                <mxCell id="Hbqb-1Qobj14XvleTHor-18" value="" style="ellipse;html=1;shape=endState;fillColor=#000000;strokeColor=#ff0000;" parent="Hbqb-1Qobj14XvleTHor-1" vertex="1">
                    &#xa;                    &#xa;&#xa;
                    <mxGeometry x="230" y="1065" width="30" height="30" as="geometry"/>
                    &#xa;                    &#xa;&#xa;
                </mxCell>
                &#xa;                &#xa;&#xa;
                <mxCell id="Hbqb-1Qobj14XvleTHor-19" value="" style="ellipse;html=1;shape=startState;fillColor=#000000;strokeColor=#ff0000;" parent="Hbqb-1Qobj14XvleTHor-1" vertex="1">
                    &#xa;                    &#xa;&#xa;
                    <mxGeometry x="195" y="140" width="30" height="30" as="geometry"/>
                    &#xa;                    &#xa;&#xa;
                </mxCell>
                &#xa;                &#xa;&#xa;
                <mxCell id="Hbqb-1Qobj14XvleTHor-20" value="" style="edgeStyle=orthogonalEdgeStyle;html=1;verticalAlign=bottom;endArrow=open;endSize=8;strokeColor=#ff0000;" parent="Hbqb-1Qobj14XvleTHor-1" source="Hbqb-1Qobj14XvleTHor-19" edge="1">
                    &#xa;                    &#xa;&#xa;
                    <mxGeometry relative="1" as="geometry">
                        &#xa;                        &#xa;&#xa;
                        <mxPoint x="210" y="210" as="targetPoint"/>
                        &#xa;                        &#xa;&#xa;
                    </mxGeometry>
                    &#xa;                    &#xa;&#xa;
                </mxCell>
                &#xa;                &#xa;&#xa;
                <mxCell id="Hbqb-1Qobj14XvleTHor-21" value="กดค้นหา" style="rounded=1;whiteSpace=wrap;html=1;arcSize=40;fontColor=#000000;fillColor=#ffffc0;strokeColor=#ff0000;" parent="Hbqb-1Qobj14XvleTHor-1" vertex="1">
                    &#xa;                    &#xa;&#xa;
                    <mxGeometry x="170" y="632" width="120" height="40" as="geometry"/>
                    &#xa;                    &#xa;&#xa;
                </mxCell>
                &#xa;                &#xa;&#xa;
                <mxCell id="Hbqb-1Qobj14XvleTHor-23" value="&lt;span&gt;กรอกชื่อ&lt;/span&gt;ผู้ป่วยลงใน&lt;span&gt;&amp;nbsp;Textfield&lt;/span&gt;" style="rounded=1;whiteSpace=wrap;html=1;arcSize=40;fontColor=#000000;fillColor=#ffffc0;strokeColor=#ff0000;" parent="Hbqb-1Qobj14XvleTHor-1" vertex="1">
                    &#xa;                    &#xa;&#xa;
                    <mxGeometry x="170" y="497" width="120" height="40" as="geometry"/>
                    &#xa;                    &#xa;&#xa;
                </mxCell>
                &#xa;                &#xa;&#xa;
                <mxCell id="Hbqb-1Qobj14XvleTHor-24" value="" style="edgeStyle=orthogonalEdgeStyle;html=1;verticalAlign=bottom;endArrow=open;endSize=8;strokeColor=#ff0000;entryX=0.5;entryY=0;entryDx=0;entryDy=0;" parent="Hbqb-1Qobj14XvleTHor-1" source="Hbqb-1Qobj14XvleTHor-23" target="rMq1oGxuymZiXaLFT7fb-0" edge="1">
                    &#xa;                    &#xa;&#xa;
                    <mxGeometry relative="1" as="geometry">
                        &#xa;                        &#xa;&#xa;
                        <mxPoint x="230" y="557" as="targetPoint"/>
                        &#xa;                        &#xa;&#xa;
                    </mxGeometry>
                    &#xa;                    &#xa;&#xa;
                </mxCell>
                &#xa;                &#xa;&#xa;
                <mxCell id="Hbqb-1Qobj14XvleTHor-28" value="" style="edgeStyle=orthogonalEdgeStyle;html=1;verticalAlign=bottom;endArrow=open;endSize=8;strokeColor=#ff0000;entryX=0.5;entryY=0;entryDx=0;entryDy=0;exitX=0.5;exitY=1;exitDx=0;exitDy=0;" parent="Hbqb-1Qobj14XvleTHor-1" source="rMq1oGxuymZiXaLFT7fb-3" target="Hbqb-1Qobj14XvleTHor-45" edge="1">
                    &#xa;                    &#xa;&#xa;
                    <mxGeometry relative="1" as="geometry">
                        &#xa;                        &#xa;&#xa;
                        <mxPoint x="598.5" y="780" as="targetPoint"/>
                        &#xa;                        &#xa;&#xa;
                        <Array as="points">
                            &#xa;                            &#xa;&#xa;
                            <mxPoint x="600" y="820"/>
                            &#xa;                            &#xa;&#xa;
                            <mxPoint x="600" y="820"/>
                            &#xa;                            &#xa;&#xa;
                        </Array>
                        &#xa;                        &#xa;&#xa;
                        <mxPoint x="254" y="1129.5" as="sourcePoint"/>
                        &#xa;                        &#xa;&#xa;
                    </mxGeometry>
                    &#xa;                    &#xa;&#xa;
                </mxCell>
                &#xa;                &#xa;&#xa;
                <mxCell id="Hbqb-1Qobj14XvleTHor-30" value="" style="edgeStyle=orthogonalEdgeStyle;html=1;verticalAlign=bottom;endArrow=open;endSize=8;strokeColor=#ff0000;exitX=0.5;exitY=1;exitDx=0;exitDy=0;" parent="Hbqb-1Qobj14XvleTHor-1" source="M_eq6HTt8-xDaxbZGKdd-0" target="M_eq6HTt8-xDaxbZGKdd-4" edge="1">
                    &#xa;                    &#xa;&#xa;
                    <mxGeometry relative="1" as="geometry">
                        &#xa;                        &#xa;&#xa;
                        <mxPoint x="241" y="422" as="targetPoint"/>
                        &#xa;                        &#xa;&#xa;
                        <mxPoint x="599" y="497" as="sourcePoint"/>
                        &#xa;                        &#xa;&#xa;
                        <Array as="points"/>
                        &#xa;                        &#xa;&#xa;
                    </mxGeometry>
                    &#xa;                    &#xa;&#xa;
                </mxCell>
                &#xa;                &#xa;&#xa;
                <mxCell id="Hbqb-1Qobj14XvleTHor-45" value="ตรวจสอบว่าผู้ป่วยมีสิทธิ์หรือไม่" style="rhombus;whiteSpace=wrap;html=1;fillColor=#ffffc0;strokeColor=#ff0000;" parent="Hbqb-1Qobj14XvleTHor-1" vertex="1">
                    &#xa;                    &#xa;&#xa;
                    <mxGeometry x="510" y="830" width="180" height="70" as="geometry"/>
                    &#xa;                    &#xa;&#xa;
                </mxCell>
                &#xa;                &#xa;&#xa;
                <mxCell id="Hbqb-1Qobj14XvleTHor-47" value="" style="edgeStyle=orthogonalEdgeStyle;html=1;align=left;verticalAlign=top;endArrow=open;endSize=8;strokeColor=#ff0000;" parent="Hbqb-1Qobj14XvleTHor-1" source="Ff7vZJIO7-Za2Zly2yPD-7" target="Hbqb-1Qobj14XvleTHor-18" edge="1">
                    &#xa;                    &#xa;&#xa;
                    <mxGeometry x="-1" y="42" relative="1" as="geometry">
                        &#xa;                        &#xa;&#xa;
                        <mxPoint x="209" y="1305" as="targetPoint"/>
                        &#xa;                        &#xa;&#xa;
                        <mxPoint x="-1" y="-10" as="offset"/>
                        &#xa;                        &#xa;&#xa;
                        <Array as="points">
                            &#xa;                            &#xa;&#xa;
                            <mxPoint x="599" y="1040"/>
                            &#xa;                            &#xa;&#xa;
                            <mxPoint x="245" y="1040"/>
                            &#xa;                            &#xa;&#xa;
                        </Array>
                        &#xa;                        &#xa;&#xa;
                    </mxGeometry>
                    &#xa;                    &#xa;&#xa;
                </mxCell>
                &#xa;                &#xa;&#xa;
                <mxCell id="Hbqb-1Qobj14XvleTHor-48" value="ตรวจสอบว่าพนักงานเวชระเบียนเข้าสู่ระบบหรือไม่" style="rhombus;whiteSpace=wrap;html=1;fillColor=#ffffc0;strokeColor=#ff0000;" parent="Hbqb-1Qobj14XvleTHor-1" vertex="1">
                    &#xa;                    &#xa;&#xa;
                    <mxGeometry x="524" y="280" width="149" height="80" as="geometry"/>
                    &#xa;                    &#xa;&#xa;
                </mxCell>
                &#xa;                &#xa;&#xa;
                <mxCell id="Hbqb-1Qobj14XvleTHor-50" value="[ no ]" style="edgeStyle=orthogonalEdgeStyle;html=1;align=left;verticalAlign=bottom;endArrow=open;endSize=8;strokeColor=#ff0000;entryX=1;entryY=0.5;entryDx=0;entryDy=0;exitX=1;exitY=0.5;exitDx=0;exitDy=0;" parent="Hbqb-1Qobj14XvleTHor-1" source="Hbqb-1Qobj14XvleTHor-48" target="Hbqb-1Qobj14XvleTHor-18" edge="1">
                    &#xa;                    &#xa;&#xa;
                    <mxGeometry x="-0.9775" y="14" relative="1" as="geometry">
                        &#xa;                        &#xa;&#xa;
                        <mxPoint x="659" y="1189" as="targetPoint"/>
                        &#xa;                        &#xa;&#xa;
                        <Array as="points">
                            &#xa;                            &#xa;&#xa;
                            <mxPoint x="710" y="320"/>
                            &#xa;                            &#xa;&#xa;
                            <mxPoint x="710" y="1080"/>
                            &#xa;                            &#xa;&#xa;
                        </Array>
                        &#xa;                        &#xa;&#xa;
                        <mxPoint x="656.9117647058824" y="323" as="sourcePoint"/>
                        &#xa;                        &#xa;&#xa;
                        <mxPoint as="offset"/>
                        &#xa;                        &#xa;&#xa;
                    </mxGeometry>
                    &#xa;                    &#xa;&#xa;
                </mxCell>
                &#xa;                &#xa;&#xa;
                <mxCell id="Hbqb-1Qobj14XvleTHor-52" value="" style="edgeStyle=orthogonalEdgeStyle;html=1;verticalAlign=bottom;endArrow=open;endSize=8;strokeColor=#ff0000;entryX=0.5;entryY=0;entryDx=0;entryDy=0;exitX=0.5;exitY=1;exitDx=0;exitDy=0;" parent="Hbqb-1Qobj14XvleTHor-1" source="Ff7vZJIO7-Za2Zly2yPD-0" target="Hbqb-1Qobj14XvleTHor-48" edge="1">
                    &#xa;                    &#xa;&#xa;
                    <mxGeometry relative="1" as="geometry">
                        &#xa;                        &#xa;&#xa;
                        <mxPoint x="599" y="250" as="targetPoint"/>
                        &#xa;                        &#xa;&#xa;
                        <mxPoint x="599" y="250" as="sourcePoint"/>
                        &#xa;                        &#xa;&#xa;
                    </mxGeometry>
                    &#xa;                    &#xa;&#xa;
                </mxCell>
                &#xa;                &#xa;&#xa;
                <mxCell id="Ff7vZJIO7-Za2Zly2yPD-0" value="โหลดข้อมูล&lt;br&gt;&lt;span&gt;พนักงานเวชระเบียนที่เข้าระบบ&lt;/span&gt;" style="rounded=1;whiteSpace=wrap;html=1;arcSize=40;fontColor=#000000;fillColor=#ffffc0;strokeColor=#ff0000;" parent="Hbqb-1Qobj14XvleTHor-1" vertex="1">
                    &#xa;                    &#xa;&#xa;
                    <mxGeometry x="538.5" y="210" width="120" height="40" as="geometry"/>
                    &#xa;                    &#xa;&#xa;
                </mxCell>
                &#xa;                &#xa;&#xa;
                <mxCell id="Ff7vZJIO7-Za2Zly2yPD-1" value="[ yes ]" style="edgeStyle=orthogonalEdgeStyle;html=1;align=left;verticalAlign=top;endArrow=open;endSize=8;strokeColor=#ff0000;entryX=0.5;entryY=0;entryDx=0;entryDy=0;" parent="Hbqb-1Qobj14XvleTHor-1" source="Hbqb-1Qobj14XvleTHor-48" target="20K_lLLBIcyYv4DTaWKM-1" edge="1">
                    &#xa;                    &#xa;&#xa;
                    <mxGeometry x="-1" relative="1" as="geometry">
                        &#xa;                        &#xa;&#xa;
                        <mxPoint x="599" y="470" as="targetPoint"/>
                        &#xa;                        &#xa;&#xa;
                        <mxPoint x="599" y="337.9999999999999" as="sourcePoint"/>
                        &#xa;                        &#xa;&#xa;
                    </mxGeometry>
                    &#xa;                    &#xa;&#xa;
                </mxCell>
                &#xa;                &#xa;&#xa;
                <mxCell id="Ff7vZJIO7-Za2Zly2yPD-6" value="" style="edgeStyle=orthogonalEdgeStyle;html=1;verticalAlign=bottom;endArrow=open;endSize=8;strokeColor=#ff0000;exitX=0.5;exitY=1;exitDx=0;exitDy=0;entryX=0.5;entryY=0;entryDx=0;entryDy=0;" parent="Hbqb-1Qobj14XvleTHor-1" source="Hbqb-1Qobj14XvleTHor-17" target="Hbqb-1Qobj14XvleTHor-23" edge="1">
                    &#xa;                    &#xa;&#xa;
                    <mxGeometry relative="1" as="geometry">
                        &#xa;                        &#xa;&#xa;
                        <mxPoint x="230" y="360" as="targetPoint"/>
                        &#xa;                        &#xa;&#xa;
                        <mxPoint x="609" y="732.5" as="sourcePoint"/>
                        &#xa;                        &#xa;&#xa;
                        <Array as="points">
                            &#xa;                            &#xa;&#xa;
                            <mxPoint x="599" y="710"/>
                            &#xa;                            &#xa;&#xa;
                            <mxPoint x="460" y="710"/>
                            &#xa;                            &#xa;&#xa;
                            <mxPoint x="460" y="470"/>
                            &#xa;                            &#xa;&#xa;
                            <mxPoint x="230" y="470"/>
                            &#xa;                            &#xa;&#xa;
                        </Array>
                        &#xa;                        &#xa;&#xa;
                    </mxGeometry>
                    &#xa;                    &#xa;&#xa;
                </mxCell>
                &#xa;                &#xa;&#xa;
                <mxCell id="Ff7vZJIO7-Za2Zly2yPD-7" value="&lt;span&gt;แสดงสิทธิ์ลงใน table&lt;/span&gt;" style="rounded=1;whiteSpace=wrap;html=1;arcSize=40;fontColor=#000000;fillColor=#ffffc0;strokeColor=#ff0000;" parent="Hbqb-1Qobj14XvleTHor-1" vertex="1">
                    &#xa;                    &#xa;&#xa;
                    <mxGeometry x="540" y="990" width="120" height="40" as="geometry"/>
                    &#xa;                    &#xa;&#xa;
                </mxCell>
                &#xa;                &#xa;&#xa;
                <mxCell id="Ff7vZJIO7-Za2Zly2yPD-9" value="" style="edgeStyle=orthogonalEdgeStyle;html=1;align=left;verticalAlign=top;endArrow=open;endSize=8;strokeColor=#ff0000;" parent="Hbqb-1Qobj14XvleTHor-1" source="M_eq6HTt8-xDaxbZGKdd-19" target="Ff7vZJIO7-Za2Zly2yPD-7" edge="1">
                    &#xa;                    &#xa;&#xa;
                    <mxGeometry x="-1" y="20" relative="1" as="geometry">
                        &#xa;                        &#xa;&#xa;
                        <mxPoint x="599" y="1180.0000000000002" as="targetPoint"/>
                        &#xa;                        &#xa;&#xa;
                        <mxPoint x="599" y="850" as="sourcePoint"/>
                        &#xa;                        &#xa;&#xa;
                        <mxPoint as="offset"/>
                        &#xa;                        &#xa;&#xa;
                    </mxGeometry>
                    &#xa;                    &#xa;&#xa;
                </mxCell>
                &#xa;                &#xa;&#xa;
                <mxCell id="Ff7vZJIO7-Za2Zly2yPD-8" value="แสดงข้อความไม่พบสิทธิ์" style="rounded=1;whiteSpace=wrap;html=1;arcSize=40;fontColor=#000000;fillColor=#ffffc0;strokeColor=#ff0000;" parent="Hbqb-1Qobj14XvleTHor-1" vertex="1">
                    &#xa;                    &#xa;&#xa;
                    <mxGeometry x="390" y="990" width="120" height="40" as="geometry"/>
                    &#xa;                    &#xa;&#xa;
                </mxCell>
                &#xa;                &#xa;&#xa;
                <mxCell id="Ff7vZJIO7-Za2Zly2yPD-11" value="[ no ]" style="edgeStyle=orthogonalEdgeStyle;html=1;align=left;verticalAlign=bottom;endArrow=open;endSize=8;strokeColor=#ff0000;entryX=0.5;entryY=0;entryDx=0;entryDy=0;exitX=0;exitY=0.5;exitDx=0;exitDy=0;" parent="Hbqb-1Qobj14XvleTHor-1" source="Hbqb-1Qobj14XvleTHor-45" target="Ff7vZJIO7-Za2Zly2yPD-8" edge="1">
                    &#xa;                    &#xa;&#xa;
                    <mxGeometry x="0.0268" y="20" relative="1" as="geometry">
                        &#xa;                        &#xa;&#xa;
                        <mxPoint x="170" y="434.9999999999999" as="targetPoint"/>
                        &#xa;                        &#xa;&#xa;
                        <Array as="points">
                            &#xa;                            &#xa;&#xa;
                            <mxPoint x="450" y="865"/>
                            &#xa;                            &#xa;&#xa;
                        </Array>
                        &#xa;                        &#xa;&#xa;
                        <mxPoint as="offset"/>
                        &#xa;                        &#xa;&#xa;
                        <mxPoint x="529" y="815" as="sourcePoint"/>
                        &#xa;                        &#xa;&#xa;
                    </mxGeometry>
                    &#xa;                    &#xa;&#xa;
                </mxCell>
                &#xa;                &#xa;&#xa;
                <mxCell id="M_eq6HTt8-xDaxbZGKdd-0" value="โหลดข้อมูล ผู้ป่วย&lt;br&gt;ลงใน textfield แบบ autocomplete" style="rounded=1;whiteSpace=wrap;html=1;arcSize=40;fontColor=#000000;fillColor=#ffffc0;strokeColor=#ff0000;" parent="Hbqb-1Qobj14XvleTHor-1" vertex="1">
                    &#xa;                    &#xa;&#xa;
                    <mxGeometry x="538.5" y="462" width="120" height="40" as="geometry"/>
                    &#xa;                    &#xa;&#xa;
                </mxCell>
                &#xa;                &#xa;&#xa;
                <mxCell id="M_eq6HTt8-xDaxbZGKdd-4" value="โหลดข้อมูลสิทธิ์" style="rounded=1;whiteSpace=wrap;html=1;arcSize=40;fontColor=#000000;fillColor=#ffffc0;strokeColor=#ff0000;" parent="Hbqb-1Qobj14XvleTHor-1" vertex="1">
                    &#xa;                    &#xa;&#xa;
                    <mxGeometry x="528" y="532" width="141" height="40" as="geometry"/>
                    &#xa;                    &#xa;&#xa;
                </mxCell>
                &#xa;                &#xa;&#xa;
                <mxCell id="M_eq6HTt8-xDaxbZGKdd-10" value="" style="edgeStyle=orthogonalEdgeStyle;html=1;align=left;verticalAlign=top;endArrow=open;endSize=8;strokeColor=#ff0000;exitX=0;exitY=0.5;exitDx=0;exitDy=0;entryX=0;entryY=0.5;entryDx=0;entryDy=0;" parent="Hbqb-1Qobj14XvleTHor-1" source="Ff7vZJIO7-Za2Zly2yPD-8" target="Hbqb-1Qobj14XvleTHor-18" edge="1">
                    &#xa;                    &#xa;&#xa;
                    <mxGeometry x="-1" y="42" relative="1" as="geometry">
                        &#xa;                        &#xa;&#xa;
                        <mxPoint x="210" y="1015" as="targetPoint"/>
                        &#xa;                        &#xa;&#xa;
                        <mxPoint x="-1" y="-10" as="offset"/>
                        &#xa;                        &#xa;&#xa;
                        <Array as="points">
                            &#xa;                            &#xa;&#xa;
                            <mxPoint x="210" y="1010"/>
                            &#xa;                            &#xa;&#xa;
                            <mxPoint x="210" y="1080"/>
                            &#xa;                            &#xa;&#xa;
                        </Array>
                        &#xa;                        &#xa;&#xa;
                        <mxPoint x="564" y="980" as="sourcePoint"/>
                        &#xa;                        &#xa;&#xa;
                    </mxGeometry>
                    &#xa;                    &#xa;&#xa;
                </mxCell>
                &#xa;                &#xa;&#xa;
                <mxCell id="M_eq6HTt8-xDaxbZGKdd-15" value="" style="edgeStyle=orthogonalEdgeStyle;html=1;verticalAlign=bottom;endArrow=open;endSize=8;strokeColor=#ff0000;exitX=0.5;exitY=1;exitDx=0;exitDy=0;entryX=0.5;entryY=0;entryDx=0;entryDy=0;" parent="Hbqb-1Qobj14XvleTHor-1" source="vn8IevebDBWohMpixijx-0" target="Hbqb-1Qobj14XvleTHor-17" edge="1">
                    &#xa;                    &#xa;&#xa;
                    <mxGeometry relative="1" as="geometry">
                        &#xa;                        &#xa;&#xa;
                        <mxPoint x="628" y="562" as="targetPoint"/>
                        &#xa;                        &#xa;&#xa;
                        <mxPoint x="628" y="532" as="sourcePoint"/>
                        &#xa;                        &#xa;&#xa;
                        <Array as="points"/>
                        &#xa;                        &#xa;&#xa;
                    </mxGeometry>
                    &#xa;                    &#xa;&#xa;
                </mxCell>
                &#xa;                &#xa;&#xa;
                <mxCell id="M_eq6HTt8-xDaxbZGKdd-19" value="แสดงข้อความพบสิทธิ์" style="rounded=1;whiteSpace=wrap;html=1;arcSize=40;fontColor=#000000;fillColor=#ffffc0;strokeColor=#ff0000;" parent="Hbqb-1Qobj14XvleTHor-1" vertex="1">
                    &#xa;                    &#xa;&#xa;
                    <mxGeometry x="540" y="930" width="120" height="40" as="geometry"/>
                    &#xa;                    &#xa;&#xa;
                </mxCell>
                &#xa;                &#xa;&#xa;
                <mxCell id="M_eq6HTt8-xDaxbZGKdd-21" value="[ yes ]" style="edgeStyle=orthogonalEdgeStyle;html=1;align=left;verticalAlign=top;endArrow=open;endSize=8;strokeColor=#ff0000;" parent="Hbqb-1Qobj14XvleTHor-1" source="Hbqb-1Qobj14XvleTHor-45" target="M_eq6HTt8-xDaxbZGKdd-19" edge="1">
                    &#xa;                    &#xa;&#xa;
                    <mxGeometry x="-1" y="20" relative="1" as="geometry">
                        &#xa;                        &#xa;&#xa;
                        <mxPoint x="600" y="990" as="targetPoint"/>
                        &#xa;                        &#xa;&#xa;
                        <mxPoint x="600" y="900" as="sourcePoint"/>
                        &#xa;                        &#xa;&#xa;
                        <mxPoint as="offset"/>
                        &#xa;                        &#xa;&#xa;
                    </mxGeometry>
                    &#xa;                    &#xa;&#xa;
                </mxCell>
                &#xa;                &#xa;&#xa;
                <mxCell id="20K_lLLBIcyYv4DTaWKM-0" value="" style="edgeStyle=orthogonalEdgeStyle;html=1;verticalAlign=bottom;endArrow=open;endSize=8;strokeColor=#ff0000;exitX=0.5;exitY=1;exitDx=0;exitDy=0;entryX=0.5;entryY=0;entryDx=0;entryDy=0;" parent="Hbqb-1Qobj14XvleTHor-1" source="20K_lLLBIcyYv4DTaWKM-1" target="M_eq6HTt8-xDaxbZGKdd-0" edge="1">
                    &#xa;                    &#xa;&#xa;
                    <mxGeometry relative="1" as="geometry">
                        &#xa;                        &#xa;&#xa;
                        <mxPoint x="600" y="447" as="targetPoint"/>
                        &#xa;                        &#xa;&#xa;
                        <mxPoint x="600" y="472" as="sourcePoint"/>
                        &#xa;                        &#xa;&#xa;
                        <Array as="points"/>
                        &#xa;                        &#xa;&#xa;
                    </mxGeometry>
                    &#xa;                    &#xa;&#xa;
                </mxCell>
                &#xa;                &#xa;&#xa;
                <mxCell id="20K_lLLBIcyYv4DTaWKM-1" value="โหลดข้อมูล ผู้ป่วย&lt;br&gt;" style="rounded=1;whiteSpace=wrap;html=1;arcSize=40;fontColor=#000000;fillColor=#ffffc0;strokeColor=#ff0000;" parent="Hbqb-1Qobj14XvleTHor-1" vertex="1">
                    &#xa;                    &#xa;&#xa;
                    <mxGeometry x="539" y="397" width="120" height="40" as="geometry"/>
                    &#xa;                    &#xa;&#xa;
                </mxCell>
                &#xa;                &#xa;&#xa;
                <mxCell id="rMq1oGxuymZiXaLFT7fb-0" value="เลือกผู้ป่วย&lt;br&gt;จาก autocomplete" style="rounded=1;whiteSpace=wrap;html=1;arcSize=40;fontColor=#000000;fillColor=#ffffc0;strokeColor=#ff0000;" parent="Hbqb-1Qobj14XvleTHor-1" vertex="1">
                    &#xa;                    &#xa;&#xa;
                    <mxGeometry x="170" y="562" width="120" height="40" as="geometry"/>
                    &#xa;                    &#xa;&#xa;
                </mxCell>
                &#xa;                &#xa;&#xa;
                <mxCell id="rMq1oGxuymZiXaLFT7fb-1" value="" style="edgeStyle=orthogonalEdgeStyle;html=1;verticalAlign=bottom;endArrow=open;endSize=8;strokeColor=#ff0000;entryX=0.5;entryY=0;entryDx=0;entryDy=0;" parent="Hbqb-1Qobj14XvleTHor-1" source="rMq1oGxuymZiXaLFT7fb-0" target="Hbqb-1Qobj14XvleTHor-21" edge="1">
                    &#xa;                    &#xa;&#xa;
                    <mxGeometry relative="1" as="geometry">
                        &#xa;                        &#xa;&#xa;
                        <mxPoint x="230" y="622" as="targetPoint"/>
                        &#xa;                        &#xa;&#xa;
                        <mxPoint x="230" y="624.75" as="sourcePoint"/>
                        &#xa;                        &#xa;&#xa;
                    </mxGeometry>
                    &#xa;                    &#xa;&#xa;
                </mxCell>
                &#xa;                &#xa;&#xa;
                <mxCell id="rMq1oGxuymZiXaLFT7fb-3" value="ค้นหาสิทธิ์ผู้ป่วยด้วยชื่อ" style="rounded=1;whiteSpace=wrap;html=1;arcSize=40;fontColor=#000000;fillColor=#ffffc0;strokeColor=#ff0000;" parent="Hbqb-1Qobj14XvleTHor-1" vertex="1">
                    &#xa;                    &#xa;&#xa;
                    <mxGeometry x="540" y="770" width="120" height="40" as="geometry"/>
                    &#xa;                    &#xa;&#xa;
                </mxCell>
                &#xa;                &#xa;&#xa;
                <mxCell id="rMq1oGxuymZiXaLFT7fb-4" value="" style="edgeStyle=orthogonalEdgeStyle;html=1;verticalAlign=bottom;endArrow=open;endSize=8;strokeColor=#ff0000;entryX=0.5;entryY=0;entryDx=0;entryDy=0;exitX=0.5;exitY=1;exitDx=0;exitDy=0;" parent="Hbqb-1Qobj14XvleTHor-1" source="Hbqb-1Qobj14XvleTHor-21" target="rMq1oGxuymZiXaLFT7fb-3" edge="1">
                    &#xa;                    &#xa;&#xa;
                    <mxGeometry relative="1" as="geometry">
                        &#xa;                        &#xa;&#xa;
                        <mxPoint x="600" y="830" as="targetPoint"/>
                        &#xa;                        &#xa;&#xa;
                        <Array as="points">
                            &#xa;                            &#xa;&#xa;
                            <mxPoint x="230" y="740"/>
                            &#xa;                            &#xa;&#xa;
                            <mxPoint x="600" y="740"/>
                            &#xa;                            &#xa;&#xa;
                        </Array>
                        &#xa;                        &#xa;&#xa;
                        <mxPoint x="230" y="740" as="sourcePoint"/>
                        &#xa;                        &#xa;&#xa;
                    </mxGeometry>
                    &#xa;                    &#xa;&#xa;
                </mxCell>
                &#xa;                &#xa;&#xa;
                <mxCell id="vn8IevebDBWohMpixijx-0" value="&lt;span&gt;โหลดสิทธิ์ลงใน table&lt;/span&gt;" style="rounded=1;whiteSpace=wrap;html=1;arcSize=40;fontColor=#000000;fillColor=#ffffc0;strokeColor=#ff0000;" parent="Hbqb-1Qobj14XvleTHor-1" vertex="1">
                    &#xa;                    &#xa;&#xa;
                    <mxGeometry x="538.5" y="592" width="120" height="40" as="geometry"/>
                    &#xa;                    &#xa;&#xa;
                </mxCell>
                &#xa;                &#xa;&#xa;
                <mxCell id="vn8IevebDBWohMpixijx-3" value="" style="edgeStyle=orthogonalEdgeStyle;html=1;verticalAlign=bottom;endArrow=open;endSize=8;strokeColor=#ff0000;exitX=0.5;exitY=1;exitDx=0;exitDy=0;entryX=0.5;entryY=0;entryDx=0;entryDy=0;" parent="Hbqb-1Qobj14XvleTHor-1" source="M_eq6HTt8-xDaxbZGKdd-4" target="vn8IevebDBWohMpixijx-0" edge="1">
                    &#xa;                    &#xa;&#xa;
                    <mxGeometry relative="1" as="geometry">
                        &#xa;                        &#xa;&#xa;
                        <mxPoint x="598.5" y="650" as="targetPoint"/>
                        &#xa;                        &#xa;&#xa;
                        <mxPoint x="598.5" y="572" as="sourcePoint"/>
                        &#xa;                        &#xa;&#xa;
                        <Array as="points"/>
                        &#xa;                        &#xa;&#xa;
                    </mxGeometry>
                    &#xa;                    &#xa;&#xa;
                </mxCell>
                &#xa;                &#xa;&#xa;
            </root>
            &#xa;            &#xa;&#xa;
        </mxGraphModel>
        &#xa;
    </diagram>
    <diagram id="eKMULHjLVsMq9UKXBZl3" name="System Use Case">
        &#xa;
        <mxGraphModel dx="990" dy="575" grid="1" gridSize="10" guides="1" tooltips="1" connect="1" arrows="1" fold="1" page="1" pageScale="1" pageWidth="827" pageHeight="1169" math="0" shadow="0">
            &#xa;            &#xa;&#xa;
            <root>
                &#xa;                &#xa;&#xa;
                <mxCell id="DlGrQcv265cSe8wdR7wn-0"/>
                &#xa;                &#xa;&#xa;
                <mxCell id="DlGrQcv265cSe8wdR7wn-1" parent="DlGrQcv265cSe8wdR7wn-0"/>
                &#xa;                &#xa;&#xa;
                <mxCell id="7_1YjVhH7S-urOC5BGZn-0" value="พนักงานเวชระเบียน" style="shape=umlActor;verticalLabelPosition=bottom;verticalAlign=top;html=1;" parent="DlGrQcv265cSe8wdR7wn-1" vertex="1">
                    &#xa;                    &#xa;&#xa;
                    <mxGeometry x="180" y="255" width="60" height="110" as="geometry"/>
                    &#xa;                    &#xa;&#xa;
                </mxCell>
                &#xa;                &#xa;&#xa;
                <mxCell id="7_1YjVhH7S-urOC5BGZn-1" value="ค้นหาสิทธิ์ผู้ป่วย&lt;br&gt;" style="strokeWidth=2;html=1;shape=mxgraph.flowchart.start_1;whiteSpace=wrap;" parent="DlGrQcv265cSe8wdR7wn-1" vertex="1">
                    &#xa;                    &#xa;&#xa;
                    <mxGeometry x="640" y="140" width="160" height="80" as="geometry"/>
                    &#xa;                    &#xa;&#xa;
                </mxCell>
                &#xa;                &#xa;&#xa;
                <mxCell id="7_1YjVhH7S-urOC5BGZn-2" value="&amp;lt;&amp;lt;extend&amp;gt;&amp;gt;" style="rounded=0;orthogonalLoop=1;jettySize=auto;html=1;exitX=0.145;exitY=0.855;exitDx=0;exitDy=0;exitPerimeter=0;dashed=1;fontFamily=Helvetica;endArrow=open;endFill=0;endSize=12;entryX=1;entryY=0.5;entryDx=0;entryDy=0;" parent="DlGrQcv265cSe8wdR7wn-1" source="7_1YjVhH7S-urOC5BGZn-1" target="7_1YjVhH7S-urOC5BGZn-3" edge="1">
                    &#xa;                    &#xa;&#xa;
                    <mxGeometry relative="1" as="geometry">
                        &#xa;                        &#xa;&#xa;
                        <mxPoint x="522.5999999999999" y="288.70000000000005" as="targetPoint"/>
                        &#xa;                        &#xa;&#xa;
                    </mxGeometry>
                    &#xa;                    &#xa;&#xa;
                </mxCell>
                &#xa;                &#xa;&#xa;
                <mxCell id="7_1YjVhH7S-urOC5BGZn-3" value="&lt;span&gt;เข้าสู่ระบบในฐานะ&lt;/span&gt;&lt;br&gt;&lt;span&gt;พนักงานเวชระเบียน&lt;/span&gt;" style="ellipse;whiteSpace=wrap;html=1;fontSize=12;" parent="DlGrQcv265cSe8wdR7wn-1" vertex="1">
                    &#xa;                    &#xa;&#xa;
                    <mxGeometry x="370" y="270" width="150" height="80" as="geometry"/>
                    &#xa;                    &#xa;&#xa;
                </mxCell>
                &#xa;                &#xa;&#xa;
                <mxCell id="7_1YjVhH7S-urOC5BGZn-4" value="" style="endArrow=open;html=1;entryX=0;entryY=0.5;entryDx=0;entryDy=0;endFill=0;strokeWidth=1;jumpSize=12;endSize=15;" parent="DlGrQcv265cSe8wdR7wn-1" source="7_1YjVhH7S-urOC5BGZn-0" target="7_1YjVhH7S-urOC5BGZn-3" edge="1">
                    &#xa;                    &#xa;&#xa;
                    <mxGeometry width="50" height="50" relative="1" as="geometry">
                        &#xa;                        &#xa;&#xa;
                        <mxPoint x="390" y="230" as="sourcePoint"/>
                        &#xa;                        &#xa;&#xa;
                        <mxPoint x="440" y="180" as="targetPoint"/>
                        &#xa;                        &#xa;&#xa;
                    </mxGeometry>
                    &#xa;                    &#xa;&#xa;
                </mxCell>
                &#xa;                &#xa;&#xa;
            </root>
            &#xa;            &#xa;&#xa;
        </mxGraphModel>
        &#xa;
    </diagram>
    <diagram id="dqWu9gtogMa_NB8Y50mX" name="Business Use Case">
        &#xa;
        <mxGraphModel dx="990" dy="575" grid="1" gridSize="10" guides="1" tooltips="1" connect="1" arrows="1" fold="1" page="1" pageScale="1" pageWidth="827" pageHeight="1169" math="0" shadow="0">
            &#xa;            &#xa;            &#xa;&#xa;&#xa;
            <root>
                &#xa;                &#xa;                &#xa;&#xa;&#xa;
                <mxCell id="O8IoRS_uXKWGMMkMUllJ-0"/>
                &#xa;                &#xa;                &#xa;&#xa;&#xa;
                <mxCell id="O8IoRS_uXKWGMMkMUllJ-1" parent="O8IoRS_uXKWGMMkMUllJ-0"/>
                &#xa;                &#xa;                &#xa;&#xa;&#xa;
                <mxCell id="ZZ4vkj-u1rgGJkt8tyPP-0" value="&amp;lt;&amp;lt;Business&amp;gt;&amp;gt;&lt;br&gt;&lt;span lang=&quot;TH&quot; style=&quot;font-family: &amp;#34;th sarabunpsk&amp;#34; , sans-serif&quot;&gt;&lt;font style=&quot;font-size: 12px&quot;&gt;พนักงานเวชระเบียน&lt;/font&gt;&lt;/span&gt;" style="shape=umlActor;verticalLabelPosition=bottom;verticalAlign=top;html=1;" parent="O8IoRS_uXKWGMMkMUllJ-1" vertex="1">
                    &#xa;                    &#xa;                    &#xa;&#xa;&#xa;
                    <mxGeometry x="120" y="320" width="70" height="130" as="geometry"/>
                    &#xa;                    &#xa;                    &#xa;&#xa;&#xa;
                </mxCell>
                &#xa;                &#xa;                &#xa;&#xa;&#xa;
                <mxCell id="ZZ4vkj-u1rgGJkt8tyPP-1" style="edgeStyle=none;rounded=0;orthogonalLoop=1;jettySize=auto;html=1;exitX=0;exitY=0.5;exitDx=0;exitDy=0;exitPerimeter=0;endArrow=none;endFill=0;" parent="O8IoRS_uXKWGMMkMUllJ-1" source="ZZ4vkj-u1rgGJkt8tyPP-2" edge="1">
                    &#xa;                    &#xa;                    &#xa;&#xa;&#xa;
                    <mxGeometry relative="1" as="geometry">
                        &#xa;                        &#xa;                        &#xa;&#xa;&#xa;
                        <mxPoint x="200" y="385" as="targetPoint"/>
                        &#xa;                        &#xa;                        &#xa;&#xa;&#xa;
                    </mxGeometry>
                    &#xa;                    &#xa;                    &#xa;&#xa;&#xa;
                </mxCell>
                &#xa;                &#xa;                &#xa;&#xa;&#xa;
                <mxCell id="ZZ4vkj-u1rgGJkt8tyPP-2" value="&amp;lt;&amp;lt;Business&amp;gt;&amp;gt;&lt;br&gt;ค้นหาสิทธิ์ผู้ป่วย&lt;span&gt;&#9;&lt;/span&gt;" style="strokeWidth=2;html=1;shape=mxgraph.flowchart.start_1;whiteSpace=wrap;" parent="O8IoRS_uXKWGMMkMUllJ-1" vertex="1">
                    &#xa;                    &#xa;                    &#xa;&#xa;&#xa;
                    <mxGeometry x="330" y="342.5" width="190" height="85" as="geometry"/>
                    &#xa;                    &#xa;                    &#xa;&#xa;&#xa;
                </mxCell>
                &#xa;                &#xa;                &#xa;&#xa;&#xa;
                <mxCell id="ZZ4vkj-u1rgGJkt8tyPP-3" style="rounded=0;orthogonalLoop=1;jettySize=auto;html=1;exitX=0.5;exitY=1;exitDx=0;exitDy=0;exitPerimeter=0;entryX=0.855;entryY=0.145;entryDx=0;entryDy=0;entryPerimeter=0;endArrow=none;endFill=0;" parent="O8IoRS_uXKWGMMkMUllJ-1" source="ZZ4vkj-u1rgGJkt8tyPP-4" target="ZZ4vkj-u1rgGJkt8tyPP-2" edge="1">
                    &#xa;                    &#xa;                    &#xa;&#xa;&#xa;
                    <mxGeometry relative="1" as="geometry"/>
                    &#xa;                    &#xa;                    &#xa;&#xa;&#xa;
                </mxCell>
                &#xa;                &#xa;                &#xa;&#xa;&#xa;
                <mxCell id="ZZ4vkj-u1rgGJkt8tyPP-4" value="&lt;div&gt;&lt;b&gt;ในบทบาทของ &lt;/b&gt;พนักงานเวชระเบียน&lt;/div&gt;&lt;div&gt;&lt;b&gt;&lt;br&gt;&lt;/b&gt;&lt;/div&gt;&lt;div&gt;&lt;b&gt;ฉันต้องการ&amp;nbsp;&lt;/b&gt;&lt;span style=&quot;text-align: center&quot;&gt;ค้นหา&lt;/span&gt;&lt;span&gt;สิทธิ์ผู้ป่วย&lt;/span&gt;&lt;/div&gt;&lt;div&gt;&lt;br&gt;&lt;/div&gt;&lt;b&gt;เพื่อ&amp;nbsp;&lt;/b&gt;ให้&lt;span style=&quot;text-align: center&quot;&gt;ค้นหา&lt;/span&gt;&lt;span&gt;สิทธิ์ในการรักษาผู้ป่วยที่จะเข้ารับการรักษาได้&lt;/span&gt;&lt;span style=&quot;text-align: center&quot;&gt;&lt;br&gt;&lt;/span&gt;&lt;div&gt;&lt;br&gt;&lt;/div&gt;" style="shape=note;whiteSpace=wrap;html=1;size=14;verticalAlign=top;align=left;spacingTop=-6;" parent="O8IoRS_uXKWGMMkMUllJ-1" vertex="1">
                    &#xa;                    &#xa;                    &#xa;&#xa;&#xa;
                    <mxGeometry x="490" y="100" width="330" height="110" as="geometry"/>
                    &#xa;                    &#xa;                    &#xa;&#xa;&#xa;
                </mxCell>
                &#xa;                &#xa;                &#xa;&#xa;&#xa;
            </root>
            &#xa;            &#xa;            &#xa;&#xa;&#xa;
        </mxGraphModel>
        &#xa;
    </diagram>
</mxfile>